<svg id="background" xmlns="http://www.w3.org/2000/svg" viewBox="0 0 1536 1030.48"><g id="bg"><rect width="1536" height="1030.48" fill="#faf6f2"/><path d="M1336.68,700.51c-11.88,11.61-29.78,12.12-40.07-2.12-9.47-13.1-5.74-34.86,10.02-40.83,12.79-3.94,24.35-.56,31.71,9.82,7.38,10.42,5.28,22.22-1.66,33.13Z" fill="#f2e9f0"/><path d="M1306.64,657.55c-7.13,4.82-12.65,11.55-13.79,20.37-1.91,14.8,7.2,27.91,22.01,29.97l.31-11.6h1.74s.95,11.83.95,11.83c8.8-.27,13.12-5.75,18.83-7.62-3.99,6.27-11.17,9.32-19.23,10.11-1.02,9.84,1.41,18.4-1.41,28.12-2.74-9.71-.58-18.37-.84-28.38-15.71-1.82-26.2-15.27-24.85-31.17.91-10.68,10.02-24.26,16.28-21.64Z" fill="#653f8f"/><path d="M181.08,591.84c-2.48-.82-2.66-2.55-2.58-4.85l.64-17.63c-6.27-1.02-13.35-2.35-15.25-9.29,4.64,3.8,8.82,6.64,15.01,6.85l.62-12.24,1.41-.45c1.42,3.69.1,7.66,1.01,12.82,8.38-.96,13.19-6.25,18.62-12.04-2.2,8.92-10.43,12.89-18.7,14.38l-.77,22.44Z" fill="#714e9a"/><path d="M453.91,853.37l-9.21,10.28c-2.13-2.43-1.39-5.07-1.21-8.18-2.5,1.16-6.49,1.39-6.36-1.18l4.75-2.45c2.02-1.04-2.76-7.17-1.88-9.04.49-1.04,2.22-1.86,3.34-.81l8.86,8.31,12.15-2.03c.75-.13.92,2.17,0,2.37-3.39.78-7.11.76-10.45,2.73Z" fill="#8056bc"/><path d="M127.57,592.6l-1.54-31.58c-5.48-1.01-11.54-1.82-13.48-6.83,5.64,1.74,9.38,5.26,14.13,4.21l-.02-14,1.81-.02.94,14.31c4.43-.12,7.57-2.72,11.84-4.56-1.48,5-7.16,5.78-11.56,6.89l-2.13,31.56Z" fill="#6a4494"/><path d="M1388.54,741.67l14.83-33.9c.32-.74,1.38-.72,1.71-.21l-14.67,34.46c-1.04.71-1.67-.16-1.87-.35Z" fill="#9a7bbb"/><path d="M564.79,489.67c7.47,2.82,14.03,18.36,11.58,19-.85.22-2.12-.14-2.25-1.32-.84-7.31-6.33-11.1-9.32-17.67Z" fill="#9570be"/><path d="M681.3,144.42l-.83,23.86c-.02.44-.64.8-1.04.69l.28-39.02c1.13,4.82,1.13,9.63,1.6,14.48Z" fill="#441f7e"/><path d="M588.53,746.34c-4.28-6.51-7.9-12.13-11.87-19.47,6.4,3.98,11.16,11.14,11.87,19.47Z" fill="#835db5"/><path d="M1404.12,689.36c-.87-6.78,4.44-10.77,6.28-16.62,1.01-3.21,1.83-7.31,5.72-7.55l-12.01,24.18Z" fill="#a58bbf"/><path d="M1127.38,699l-11.74-19.08c6.72,4.1,11.37,11.64,11.74,19.08Z" fill="#825eb3"/><rect x="535.64" y="905.11" width="2.61" height="11.48" transform="translate(-374.2965 1447.1391) rotate(-89.959)" fill="#9b7ec0"/><rect x="922.28" y="396.66" width="13.61" height="2.57" transform="translate(-71.32 253.94) rotate(-15)" fill="#8661b3"/><rect x="474.35" y="844.44" width="12.68" height="2.57" transform="translate(-187.65 138.87) rotate(-13.78)" fill="#8967b4"/><path d="M1036.55,481.23c1.63-5.04,6.76-7.81,11.43-9.37-2.88,4.61-6.23,7.21-11.43,9.37Z" fill="#7a50af"/><rect x="552.26" y="909.55" width="11.65" height="2.47" transform="translate(-24.88 15.72) rotate(-1.58)" fill="#8e70b7"/><path d="M872.66,414.32c2.7,1.67-4.96,6.11-11.17,7.11,2.65-3.56,6.69-5.6,11.17-7.11Z" fill="#835db2"/><rect x="504.13" y="688.25" width="2.71" height="11.53" transform="translate(-291.9961 1012.1347) rotate(-75.6797)" fill="#9170be"/><rect x="443.82" y="631.85" width="2.56" height="12.88" transform="translate(-36.88 27.37) rotate(-3.38)" fill="#8965b4"/><rect x="497.1" y="838.32" width="12.21" height="2.74" transform="translate(-206.55 165.5) rotate(-15.54)" fill="#8c69b5"/><path d="M644.84,257.62c1.72,2.22-5.54,6.66-10.76,7.08,2.22-3.99,7.24-5.65,10.76-7.08Z" fill="#7f56b0"/><path d="M497.18,578.86c-.32,2.97-6.84,5.4-11.27,4.68,3.01-3.4,7.6-4.3,11.27-4.68Z" fill="#8a69b7"/><path d="M954.61,389.49c4.65-1.72,4.78,3.38-9.13,4.8.1-.1.2-1.03-.02-1.41l9.15-3.39Z" fill="#8d6cb4"/><path d="M940.85,534.53c-4.56,3.73-9.72,3.7-14.68,1.17,5.35-1.39,9.48-1.63,14.68-1.17Z" fill="#8761b2"/><rect x="562.45" y="543.42" width="11.74" height="2.88" transform="translate(-202.41 705.59) rotate(-55.57)" fill="#8761b4"/><rect x="494.97" y="445.05" width="2.57" height="13.13" transform="translate(-172.96 402.82) rotate(-38.13)" fill="#8461b1"/><rect x="518.07" y="831.79" width="11.55" height="2.73" transform="translate(-250.17 225.32) rotate(-19.7)" fill="#906eba"/><rect x="538.16" y="823.8" width="11.16" height="2.73" transform="translate(-312.05 331.02) rotate(-26.61)" fill="#8a69b5"/><rect x="583.8" y="295.58" width="11.59" height="2.58" transform="translate(-54.42 441.78) rotate(-39.41)" fill="#835cb2"/><rect x="962.61" y="663" width="11.76" height="2.65" transform="translate(-154.07 319.12) rotate(-17.35)" fill="#825bb5"/><path d="M567.06,810.76c1.82,2.48-6.04,8.2-9.95,7.62,2.77-4.2,6.61-5.42,9.95-7.62Z" fill="#815bb3"/><rect x="713.27" y="230.45" width="11.95" height="2.64" transform="translate(-31.97 149.87) rotate(-11.64)" fill="#734aa8"/><rect x="831.62" y="445.37" width="11.45" height="2.64" transform="translate(69.8247 1004.8912) rotate(-64.1059)" fill="#8561b3"/><rect x="582.78" y="781.82" width="12.01" height="2.72" transform="translate(-341.2759 1091.4397) rotate(-71.4015)" fill="#8b66b8"/><path d="M792.11,785.64l-8.01,7.58-1.25-1.17c4.52-5.87,8.87-10.42,9.27-6.41Z" fill="#8f69ba"/><rect x="483.27" y="681.73" width="2.81" height="11.48" transform="translate(-332.75 885.81) rotate(-68.45)" fill="#8f6ebb"/><rect x="573.69" y="907.82" width="12.07" height="2.53" transform="translate(-123.17 91.49) rotate(-8.16)" fill="#8562b3"/><path d="M577.11,518.08c2.61,5.15,1.06,9.53-1.5,13.88-1.25-5.11.08-9.03,1.5-13.88Z" fill="#9070b6"/><rect x="464.3" y="671.35" width="2.82" height="11.93" transform="translate(-355.63 644.91) rotate(-53.23)" fill="#8460b6"/><rect x="942.87" y="669.86" width="10.8" height="2.76" transform="translate(-175.64 376.96) rotate(-20.62)" fill="#916fbb"/><rect x="851.8" y="507.29" width="2.46" height="11.22" transform="translate(-105.65 780.6) rotate(-46.62)" fill="#8663b2"/><path d="M683.33,242.53c-3.9,1.77-7.08,4.03-11.43,3.34,4.79-4.73,13.83-6.72,11.43-3.34Z" fill="#845db5"/><rect x="512.34" y="458.78" width="2.91" height="12.1" transform="translate(-132.92 713.45) rotate(-63.16)" fill="#7a51af"/><path d="M746.09,828.88l-7.55,7.91c-4.94.87.9-6.67,7.55-7.91Z" fill="#8c69b7"/><rect x="524.73" y="693.84" width="2.67" height="11.38" transform="translate(-295.06 1002.5905) rotate(-73.3142)" fill="#8d6abc"/><rect x="506.81" y="573.67" width="11.49" height="2.59" transform="translate(-135.35 158.42) rotate(-15.55)" fill="#794fac"/><rect x="979.67" y="197.21" width="2.67" height="11.38" transform="translate(538.4041 1101.5903) rotate(-75.4655)" fill="#7952ae"/><rect x="911.39" y="195.65" width="12.15" height="2.43" fill="#724ba4"/><rect x="901.71" y="402.2" width="11.48" height="2.67" transform="translate(-78.01 280.35) rotate(-16.85)" fill="#8059af"/><rect x="890.67" y="197.31" width="11.74" height="2.45" transform="translate(-16.59 101.62) rotate(-6.43)" fill="#8561b3"/><rect x="451.5" y="603.03" width="11.31" height="2.68" transform="translate(-300.63 607.47) rotate(-53.13)" fill="#7f57b3"/><path d="M491.27,420.91c-1.92,4.94-.91,7.99-2.45,12.68-3.05-3.67-1.41-7.34-.48-10.98-.15-1.7.99-3.04,2.93-1.7Z" fill="#8863b2"/><rect x="563.55" y="711.35" width="2.69" height="11.02" transform="translate(-345.74 778.02) rotate(-55.6)" fill="#8964b9"/><rect x="433.67" y="879.2" width="2.54" height="11.49" transform="translate(-550.19 842.38) rotate(-61.35)" fill="#825fb2"/><rect x="472.98" y="895.7" width="2.81" height="10.76" transform="translate(-532.439 1053.7397) rotate(-70.8566)" fill="#8763b6"/><rect x="692.77" y="235.56" width="10.71" height="2.6" transform="translate(-38.55 208.67) rotate(-16.55)" fill="#8662b2"/><rect x="493.27" y="900.3" width="2.59" height="11.43" transform="translate(-491.3224 1211.7833) rotate(-78.6024)" fill="#916fb8"/><rect x="844.62" y="428.11" width="11.33" height="2.64" transform="translate(-56.69 720.62) rotate(-44.6)" fill="#835eb1"/><rect x="453.2" y="888.64" width="2.57" height="11.31" transform="translate(-547 952.16) rotate(-66.37)" fill="#8767b4"/><path d="M659.28,886.16c1.31,2.17-4.81,4.8-10.34,5.45,2.53-3.5,6.53-4.47,10.34-5.45Z" fill="#9170b8"/><path d="M863,718.27c1.98,1.82-2.68,5.49-8.57,7.57,1.13-3.51,4.73-6.01,8.57-7.57Z" fill="#8963b8"/><rect x="617.2" y="270.62" width="10.38" height="2.83" transform="translate(-47.61 383.69) rotate(-33.07)" fill="#8157b4"/><rect x="450.08" y="654.57" width="2.81" height="12.92" transform="translate(-275.76 326.49) rotate(-30.96)" fill="#8967b6"/><rect x="933.27" y="195.65" width="11.54" height="2.43" fill="#744cab"/><rect x="983.35" y="657.74" width="10.67" height="2.54" transform="translate(-115.99 221.43) rotate(-12.08)" fill="#825cb2"/><path d="M1091.62,662.67c-3.69.14-7.51-.98-10.99-4.41,3.89-.19,7.65,0,10.99,4.41Z" fill="#906fbd"/><rect x="965.78" y="384.09" width="11.71" height="2.65" transform="translate(-72.86 344.81) rotate(-19.41)" fill="#7b53ad"/><rect x="999.57" y="203.36" width="2.64" height="11.1" transform="translate(443.5402 1066.1057) rotate(-68.7581)" fill="#805cb1"/><rect x="541.98" y="337.91" width="10.75" height="2.61" transform="translate(-58.77 556.66) rotate(-51.52)" fill="#8c67b5"/><rect x="527.81" y="353.57" width="11.47" height="2.69" transform="translate(-76.42 551.32) rotate(-51.48)" fill="#7b50ae"/><path d="M896.49,697.43l-8.09,4.61-1-1.15c5.47-5.43,11.28-7.46,9.09-3.46Z" fill="#8f6cbc"/><rect x="546.92" y="557.97" width="11.05" height="2.76" transform="translate(-212.88 379.48) rotate(-32.13)" fill="#825fae"/><path d="M591.75,767.73c-2.14-4.68-1.32-8.66-.66-13.35,2.92,3.24,2.87,8.72.66,13.35Z" fill="#8663b7"/><rect x="811.43" y="757.73" width="10.83" height="2.64" transform="translate(-298.22 755.47) rotate(-42.72)" fill="#8d67ba"/><rect x="1018.59" y="211.73" width="2.65" height="10.99" transform="translate(367.0369 1030.336) rotate(-63.2612)" fill="#8562b4"/><rect x="796.87" y="772.38" width="10.72" height="2.56" transform="translate(-312.27 768.82) rotate(-43.71)" fill="#906ab9"/><rect x="905.92" y="534.68" width="11.54" height="2.43" fill="#8663b2"/><rect x="1021.05" y="353.85" width="11.09" height="2.59" transform="translate(22.78 770.34) rotate(-41.55)" fill="#7a51ae"/><path d="M557.71,484.2c-3.66-.15-7.11-2.57-10.46-5.92,3.86-.3,7.66,1.3,10.46,5.92Z" fill="#8c68b7"/><rect x="888.36" y="526.62" width="2.75" height="11.08" transform="translate(150.7751 1259.3317) rotate(-75.4233)" fill="#7d5aaf"/><rect x="838.66" y="491.18" width="2.59" height="11.62" transform="translate(-135.02 452.81) rotate(-28.02)" fill="#805baf"/><rect x="1003.57" y="366.34" width="11.52" height="2.74" transform="translate(-40.45 595.59) rotate(-32.27)" fill="#825db0"/><path d="M875.25,526.73c-3.3,1.06-7.82-1.02-10.58-4.87,3.8-.09,6.8,1.22,10.58,4.87Z" fill="#7c57ac"/><path d="M610.26,279.77c-1.91,4.56-5.59,6.9-9.59,7.86,2.18-4.68,5.39-6.64,9.59-7.86Z" fill="#8057b2"/><path d="M996.49,511.86c3.54.72-2.07,5.32-8.4,6.73-.07-.1-.22-.85-.07-1.59l8.46-5.14Z" fill="#835cb3"/><rect x="514.41" y="903.81" width="2.68" height="10.85" transform="translate(-434.0447 1345.8153) rotate(-85.1229)" fill="#8a69b4"/><rect x="923.25" y="677.96" width="11.19" height="2.71" transform="translate(-194.21 428.35) rotate(-23.58)" fill="#8560b7"/><path d="M564.88,321.19l-6.44,7.38c-.74-.03-1.37-.35-1.62-.54,4.87-9.43,10.11-9.2,8.05-6.84Z" fill="#7f58b0"/><rect x="1004.44" y="502.04" width="11.44" height="2.74" transform="translate(-99.82 707.83) rotate(-36.92)" fill="#7e57af"/><rect x="904.86" y="686.89" width="10.77" height="2.93" transform="translate(-215.82 502.96) rotate(-27.75)" fill="#8059b6"/><rect x="1020.07" y="489.92" width="10.52" height="2.56" transform="translate(-48 866.08) rotate(-44.85)" fill="#8661b3"/><path d="M1108.67,672.86c-3.62-.62-7.31-2.9-9.29-6.81,4.04.35,7.26,2.71,9.29,6.81Z" fill="#8a68b7"/><path d="M834.18,482.04c-3.35-3.98-4.15-8.32-1.71-12.75,1.48,4.48,2.28,7.64,1.71,12.75Z" fill="#835eb0"/><rect x="573.52" y="799.97" width="9.92" height="2.67" transform="translate(-408.62 752.56) rotate(-51.35)" fill="#8b69b6"/><rect x="767.12" y="802.02" width="11.15" height="2.5" transform="translate(-341.76 786.02) rotate(-45.22)" fill="#855eb4"/><rect x="515.17" y="368.76" width="11.37" height="2.53" transform="translate(-92.51 548.89) rotate(-51.65)" fill="#845eaf"/><rect x="531.87" y="467.01" width="2.58" height="11.25" transform="translate(-83.82 828.98) rotate(-71.57)" fill="#8967b4"/><rect x="751.68" y="816.68" width="11.2" height="2.41" transform="translate(-357.09 793.34) rotate(-45.94)" fill="#8a67b5"/><rect x="1035.6" y="339.9" width="10.83" height="2.64" transform="translate(118.74 932.45) rotate(-50.81)" fill="#875fb3"/><rect x="1063.29" y="278.28" width="2.43" height="10.94" fill="#7a52aa"/><rect x="527.47" y="567.46" width="11.13" height="2.59" transform="translate(-174.66 241.99) rotate(-22.07)" fill="#805bad"/><path d="M1067.58,458.89c-2.99,4.61-5.74,5.38-9.85,6.78,1.63-4.29,5.8-6.79,9.85-6.78Z" fill="#815ab0"/><rect x="544.6" y="701.21" width="2.74" height="10.84" transform="translate(-318.29 931.28) rotate(-66.88)" fill="#8e6cbb"/><rect x="1047.47" y="323.12" width="11.32" height="2.59" transform="translate(265.9154 1095.5278) rotate(-61.529)" fill="#7e56b0"/><rect x="870.04" y="708.47" width="10.91" height="2.69" transform="translate(-250.79 667.26) rotate(-36.87)" fill="#8c66bb"/><path d="M893.18,409.03l-10.27,3.01c-.48-.34-.89-1.02-.94-1.28,3.04-2.19,7.02-2.89,10.49-3.8.64.4,1.04,1.15.72,2.07Z" fill="#7d55ad"/><path d="M1059.26,311.48c-.27-5.27,1.2-8.74,3.39-12.89,1.36,4.42.27,9.15-3.39,12.89Z" fill="#7f58b0"/><rect x="1040.2" y="651.34" width="10.94" height="2.43" fill="#8963bc"/><path d="M710.47,855.31c1.76-2.35,6.54,1.23-6.92,7.36.3-4.38,5.03-4.83,6.92-7.36Z" fill="#8764b3"/><path d="M878.33,202.53l-8.21,1.35-.07-1.72,7.96-2.35c1.03-.3,1.5-.36,1.98-.06.36.22,1.16.99,1.01,1.39-.27.71-1.54,1.2-2.66,1.38Z" fill="#8c6bb7"/><path d="M1062.16,268.08c-1.91-4.19-2.78-7.54-3.62-12.23,3.74,2.38,5.87,7.28,3.62,12.23Z" fill="#7a51ab"/><rect x="1049.93" y="237.2" width="2.57" height="11.27" transform="translate(79.5 711.66) rotate(-38.76)" fill="#825cb0"/><path d="M966.26,199.79c-3.65,1.37-8.02,1.08-11.99-2.14,4.16-.94,7.51-.39,11.99,2.14Z" fill="#7d59b1"/><path d="M606.36,904.7c-2.8,2.28-7.29,3.93-11.85,2.08,3.72-2.24,6.8-3.04,11.85-2.08Z" fill="#805aad"/><rect x="569.56" y="309.33" width="10.25" height="2.58" transform="translate(-60.45 463.45) rotate(-41.92)" fill="#764cae"/><rect x="667.48" y="878.94" width="10.83" height="2.51" transform="translate(-337.16 424.86) rotate(-28.34)" fill="#8b6ab2"/><rect x="969.29" y="523.78" width="10.55" height="2.64" transform="translate(-129.49 444.01) rotate(-24.12)" fill="#8965b5"/><path d="M961.19,530.43c-2.8,2.28-7.29,3.93-11.85,2.08,3.72-2.24,6.8-3.04,11.85-2.08Z" fill="#7c54af"/><rect x="1035.73" y="223.3" width="2.63" height="10.73" transform="translate(205.97 889.77) rotate(-50.94)" fill="#7f58b2"/><rect x="985.88" y="376.06" width="10.93" height="2.55" transform="translate(-68.21 427.14) rotate(-23.53)" fill="#7c56ab"/><path d="M730.09,842.11c-2.11,3.76-5.09,6.64-9.68,7.51,2.47-3.47,4.57-6.56,9.68-7.51Z" fill="#845fb1"/><rect x="467.65" y="589.15" width="11.06" height="2.74" transform="translate(-258.3 396.73) rotate(-36.46)" fill="#7a55af"/><path d="M1072.21,656.85c-3.78.1-7.66-.04-11.72-2.28,3.59-1.28,7.95-2.2,11.72,2.28Z" fill="#835fb5"/><path d="M1030.66,653.17c-3.48,2.89-8.07,2.69-12.04.52,4.32-1.98,7.75-1.43,12.04-.52Z" fill="#8765b5"/><path d="M661.94,251.71l-8.62,3.05c1.93-4.29,6.52-4.64,9.52-6.5.98.1,1.38,2.64-.9,3.45Z" fill="#774eae"/><rect x="685.42" y="868.96" width="10.47" height="2.67" transform="translate(-365.72 526.07) rotate(-33.52)" fill="#805aae"/><rect x="838.33" y="733.97" width="9.97" height="2.46" transform="translate(-275.23 758.9) rotate(-42.3)" fill="#8d69b9"/><path d="M641.54,895.07c-.03-.16-8.03,4.95-10.55,1.57l8.94-3.39c.78.66,1.54,1.43,1.61,1.82Z" fill="#9372bb"/><path d="M1132.78,714.38l.87,1.98c.14.31-.69,1.08-1.84,1.79-.82-3.78-2.35-7.48-1.34-12.32,1.86,2.57,2.15,5.11,2.31,8.55Z" fill="#8a69b1"/><path d="M624.8,899.58c-2.5,2.69-6,3.7-10.12,2.97,2.5-2.69,6-3.7,10.12-2.97Z" fill="#9475b9"/><rect x="1003.04" y="654.44" width="7.6" height="2.44" transform="translate(-91.41 168.36) rotate(-9.15)" fill="#987abd"/><path d="M832.93,460.55c-1.38-3.24-.71-5.8,1.38-7.48,1.13,3,1.24,5.51-1.38,7.48Z" fill="#956dbe"/><rect x="445.53" y="617.84" width="5.9" height="2.74" transform="translate(-312.82 689.79) rotate(-59.38)" fill="#845fb3"/><path d="M826.6,749.58c.7-2.05,2.64-3.25,4.01-4.64.65-.22,1.24-.03,1.49.14-1.02,2.33-3.65,5.14-5.5,4.49Z" fill="#7e54b1"/><path d="M1414.81,777.7l-.95-24.1c-2.47-2.49-7.33-5.01-9.2-8.67l-9.6-.27-.02-1.93,19.19-.12.87-11.31c2.81,2.84,1.6,6.62.9,10.79l19.49,1.3-7.89,2.3c-2.76,3.74-6.48,6.25-10.6,8.15l-.17,23.23c-.42.86-1.48.89-2.02.63Z" fill="#664092"/><path d="M1424.62,745.55c-1.4,2.05-3.44,3.81-6.9,5.65-1.47-.94-1.75-4.3-.9-5.65.75-1.2,4.14-1.94,7.8,0Z" fill="#f4ebf2"/><path d="M1413.87,749.89c-1.97-.21-4.95-1.92-5.44-4.75.97-.87,3.46-.72,4.27-.6,1.05.16,2.55,1.77,1.16,5.35Z" fill="#decfe5"/><path d="M420.85,859.11c-.24,5.01-1.51,8.17-4,11.87,1.86,1.89,3.48,2.84,4.89,5.22-2.97.48-4.71-1.36-6.46-3.85-7,3.78-14.75,1.97-18.26-3.94-3.8-6.4-1.8-14.6,4.22-18.13,6.93-4.06,14.72-1.32,18.64,6.19,1.31,1.24,5.29-.98,7.74-.14-1.17,2.88-4.49,2.09-6.76,2.77Z" fill="#613f71"/><circle cx="407.85" cy="861.34" r="10.71" fill="#eee055"/><path d="M513.29,399.71c-6.36,10.06-14.32,3-19.59,10.15-.76-2.43.34-3.51,1.31-5.39-5.47-4.73-6.84-11.56-3.23-17.61,3.11-5.2,9.99-7.44,16.48-4.7l2.83-.31c-.84.09,6.85,10.52,2.21,17.86Z" fill="#78508c"/><path d="M500.52,403.57c-.67-.18-.93-3.98-1.58-3.87s-1.84,1.78-2.6,2.38c-4.32-2.21-5.89-8.36-3.43-12.91s7.66-7.28,12.41-5.68c5.6,1.89,8.04,7.03,7.28,11.88-.89,5.71-6.49,9.67-12.09,8.19Z" fill="#ebdf52"/><path d="M1082.76,454.48c-2.7.52-4.91,2.11-7.21.7,1.65-1.91,3.93-2.1,5.99-3.2-1.48-7.74,2.59-14.17,9.23-15.67,7.28-1.65,14.64,2.84,15.18,10.78.42,6.15-2.72,11.41-8.01,13.39s-11.5.65-15.19-6Z" fill="#764f89"/><path d="M1085.73,454.97c-3.03-4.78-2.82-9.5-.14-12.78,2.94-3.6,7.56-5.24,12.75-3.06,6.14,2.58,7.39,10.84,3.66,15.83-3.81,5.09-12.47,6-16.27.01Z" fill="#ece14b"/><path d="M1029.63,923.89c2.89-4.57,1.4-9.55,5.13-8.43-.46,4.32-1.82,8.92-3.91,13.78-3.79-2.82-3.05-6.1-4.67-8.7-1.15,3.85-.71,7-4.49,8.37l-3.44-14.01c4.17,1.37,3.17,5.28,4.12,9.05l3.48-9.21c3.48,1.79,3.22,5.36,3.78,9.15Z" fill="#815cb2"/><path d="M994.5,928.62c-4.26-1.37-4.86-4.42-7.02-7.73-2.39,3.85.8,8.22-3.37,7.27l.19-13.2c4.15,1.14,5.01,4.76,6.85,7.87,2.21-2.88.77-5.33,1.3-7.16l1.45-.49c1.46,3.99.97,8.02.61,13.44Z" fill="#835eb5"/><path d="M1180.57,928.85c-4.97-1.99-4.67-5.67-7.67-8.12-.4,3.28.99,5.9-1.96,8.24-1.52-4.65-1-9.38-.5-14.03,4.92,1.68,4.8,6.18,7.97,8.75.16-3.35-1.38-6.78,1.98-8.94l.18,14.11Z" fill="#754caa"/><path d="M1088.51,928.82c-4.97-2.13-4.87-5.76-7.93-8.06-.07,3.33,1.19,6.17-2.06,8.3-1.11-4.92-.65-9.1-.3-14.01,4.46,1.24,5.37,5.54,7.93,8.73.48-3.34-1.17-6.63,1.9-9.12,1.32,4.85.8,9.07.47,14.17Z" fill="#754dac"/><path d="M1067.05,920.43l4.44,7.99c-4.08-.08-4.74-3.26-6.39-5.11-1.52,1.67-1.11,2.89-1.23,3.92-.09.72-1.49,1.28-2.72.91l.4-12.41c.97-1,2.34,0,2.33.63-.03.99-.11,2.5,1.22,3.71,1.53-2.58,3.09-5.21,6.55-4.79-1.11,1.81-2.19,2.86-4.61,5.14Z" fill="#8662b6"/><path d="M1117.65,923.92c-3.18-.23-2.5-3.59.02-2.85,2.65-.25,3.23,1.03,2.96,3.11-.15,1.16.65,3.53-1.59,3.69-3.78.27-7.56.85-9.03-2-1.61-3.11-1.45-7.27,1.37-9.43,2.22-1.7,6.63-1.71,8.59,1.26,2.71,4.12-4.62-.5-6.05-.01-1.81.62-2.65,2.42-2.42,4.64.2,1.92,1.16,3.15,2.34,3.65,1.28.53,3.09.62,3.82-2.04Z" fill="#7a53ae"/><path d="M1099.16,924.4c.3-.84-1.43-1.47-1.88-1.59s.04-1.79,1.15-1.85c3.34-.18,4.51.62,3.96,4.3-.28,1.85.1,2.96-3.49,2.73-1.69-.11-3.7.72-5.19-.21-1.69-1.07-2.86-2.78-2.92-5.44-.09-3.59,1.26-6.21,4.92-6.88,2.39-.44,7.06.45,5.9,4.7-2.42-1.65-4.61-3.12-5.99-2.48-2.61,1.22-2.79,4.14-2.01,6.34.83,2.35,4.51,3.4,5.56.39Z" fill="#815eb1"/><path d="M1134.16,928.46c-3.79.19-3.5-2.34-4.23-2.84-1.2-.81-3.56-.94-4.52.52l-1.14,1.74c-.39.6-2.23.49-2.4-.15l4.34-11.72c.33-.89,1.53-.73,1.96-.66.72.12,1.68.72,2.11,1.96l3.88,11.14Z" fill="#7951af"/><path d="M1002.94,922.68c-1.6-.41-2.68-.1-3.13.34-.55.55-.68,1.91-.3,2.4,1.47,1.88,6.31-.88,5.64,2.73l-8.27-.05.17-12.47c3.1-.34,5.55-.52,8.68.2-1.74,2.94-4.66,1.56-5.82,2.18-1.28.68-.75,1.78-.43,2.07.53.48,1.96.87,3.48.58,2.58-.77,2.59,2.8-.01,2Z" fill="#8c6cb6"/><path d="M1165.77,922.77c-1.7-.31-2.93,0-3.54.54s-.37,2.75.46,2.75c2.35.01,3.79-.24,5.23.47v1.38c-2.6.7-5.22.36-8.33.16l-.03-12.62,8.91.3c-1.44,2.77-3.47,1.96-5.59,1.72-1.11-.13-1.32,2.16-.63,2.66s1.84.8,3.54.51c2.48-.61,2.48,2.73,0,2.13Z" fill="#805aae"/><path d="M1012.89,919.21c.22,3.75,1.67,7.11-.75,10.08-2.28-4.07-.83-7.63-1.49-11.24l-2.71-.5c-2.73-.5,0-3.76,9.69-1.6l-4.75,3.26Z" fill="#8c6cb6"/><rect x="1067.55" y="920.47" width="13.37" height="2.52" transform="translate(144.0772 1988.6687) rotate(-89.5489)" fill="#7c56ab"/><path d="M1147.16,927.93c-.36-3.53-1.02-8.92.19-12.01,2.69-1.46,7.33-.32,8.8,1.51,1.76,2.18,1.96,5.61.59,7.86-1.67,2.74-4.51,3.62-9.58,2.63Z" fill="#8562b3"/><path d="M1149.33,926.03l.15-8.42c3.66-.86,5.58,1.51,5.63,4.12.06,2.86-2.01,5.13-5.78,4.29Z" fill="#fbf8fb"/><path d="M1059.24,928.38c-3.19-.39-3.19-2.88-6-5.6-1.01,2.26.28,4.46-2.77,6.05-1-4.73-.55-8.95-.43-13.05,3.75-1.11,8.59-.7,9.33,3.01.35,1.76-1.6,3.42-1.84,4.4-.28,1.13,1.45,2.65,1.71,5.19Z" fill="#7953ad"/><circle cx="1054.29" cy="919.39" r="2.18" fill="#e9dbf2"/><path d="M1144.55,928.5c-3.39-.76-2.87-3.74-6.2-5.47-.69,1.4-.66,2.83-.41,3.64.46,1.47-2.01,1.95-2.49,1.27l.25-11.58c.03-1.58,4.18-.99,5.56-.83s4.11,2.03,3.12,4.07c-1.57,3.24-1.66,4.16.17,8.91Z" fill="#8360b2"/><circle cx="1139.77" cy="919.45" r="2.26" fill="#e5daf0"/><circle cx="1041.88" cy="921.8" r="6.44" fill="#7750ac"/><circle cx="1041.91" cy="921.79" r="4.05" fill="#f2e9f4"/><path d="M296.69,880.98c-3.61.03-3.29-2.34-4-2.86-1.28-.94-3.64-.94-4.62.56l-1.14,1.76c-.42.65-2.2.56-2.34-.16l3.83-10.95c.51-1.45,1.52-1.86,2.62-1.69.96.15,1.62.77,2.07,2.18l3.59,11.15Z" fill="#805ab3"/><path d="M268.06,873.55c2.26,1.86-4.34,1.19-5.32,2.1-.58.55-.17,3.08.85,2.96,2.17-.24,4.12-.93,5.62,1.67-3.31.76-5.62.45-8.89.32v-12.67c3.1-.14,5.67-.36,8.25.17v1.45s-5.59.76-5.59.76c-.72.38-.36,2.32.16,2.43,2.17.44,3.84-.08,4.91.8Z" fill="#8766b3"/><path d="M231.34,872.59c-2.69-2.05-5.59-3.36-7.38-1.62s-1.64,4.91.07,6.6,4.62.66,7.3-1.6c1.08,3.74-2.47,4.68-4.85,4.77-3.63.14-5.87-2.37-6.18-6.04s1.87-6.4,5.21-6.97c2.83-.49,6.86.82,5.83,4.85Z" fill="#7d58ae"/><path d="M283.42,879.64c-1.82,1.88-4.5,1.23-7.66.93-.45-4.33-.82-9.1,1.1-13.86,2.87,3.66.51,7.37.94,10.72.33.78,3.19.97,5.62,2.21Z" fill="#845fb4"/><path d="M307.23,878.57c.08,2.71-6.54,2.77-8.84,1.6l-.14-12.11c2.37-.35,7.1-.76,8.7,1.08l.27,9.43Z" fill="#7f57b1"/><rect x="301.17" y="874.5" width="3.63" height="4.74" transform="translate(-585.2911 1144.5744) rotate(-87.7095)" fill="#dac6eb"/><path d="M304.89,871.46c.34,1.4-4.61,2.16-4.79-.28-.1-1.35,4.14-2.44,4.79.28Z" fill="#e4d5f1"/><path d="M247.89,880.51c-.45-3.36-1.32-9.05.28-12.01,2.35-1.78,7.31-.5,8.79,1.42,1.69,2.19,2.17,5.37.44,7.89s-4.36,3.59-9.52,2.7Z" fill="#815cb0"/><path d="M250.48,878.75c-.81-2.93-.68-5.76-.18-8.58,3.01-.91,4.91.8,5.35,2.96.53,2.58-.29,5.79-5.17,5.62Z" fill="#f8f3f9"/><circle cx="239.39" cy="874.31" r="6.53" fill="#7249a8"/><path d="M237.17,878.12c-2.24-1.43-2.24-6.14,0-7.61,1.85-1.22,4.53-.53,5.28.72.91,1.52.9,3.55.42,5.36s-3.29,3.07-5.71,1.54Z" fill="#e9dced"/><path d="M1206.47,709.63c-1.54,3.16-3.36,2.49-4.55-.8,2.79-9.69,10.29-36.94-8.94-23.95-10.58,13.08-13,33.5-10.6,49.89,1.56-13.25,4.32-26.2,8.27-38.85,2.92-5.01,5.76-8.1,8.11-.88-2.05,5.67-10.85,42.92-8.86,43.97,1.1.58,13.63-3.98,6.58-4.34-4.18-4.47-2.39-16.07,2.42-19.51,1.57-1.12,2.31-1.25,4.04.25l-3.51,14.15c7.94-3.47,10.39-14.52,17.34-19.54,3.53-2.55,8.26-2.8,11.79.04,7.43,6,.36,20.86-9.41,30.12l11.99,5.52c4.21-2.1,6.44-7.92,11.23-5.71,4.77,2.21-.87,11.35,2.83,14.28,5.19,4.1,13.08,1.08,12.47,4.9l-.87,5.36c1.41,5.32,3.78,9.78,3.68,15.65l-.46,25.48c-3.62,19.29-30.42,35.78-49.36,44.39-48.21,21.9-100.54,32.93-153.61,31.48-31.01-.85-60.5-4.77-89.88-13.64-17.87-5.4-50.28-17.79-50.39-34.47l-.18-26.46c-.09-13.33,26.71-30.71,42.42-36.21l36.07-12.63c14.81-5.19,29.01-10.39,42.53-18.79-1.63-3.6-4.04-8.18-1.89-11.09,2.58-3.49,8.41-1.17,11.86,1.38-2.9-16.04-2.71-38.39,7.59-37.63,8.86.66,11.56,21.1,11.77,35.42,8.18-.66,10.43-5.77,16.31-7.33,1.52-.4,4.16,3.34,5.65,3.17,24.02-2.76,47.37-1.11,72.03,2.52-.99-6.09-2.68-11.74,0-16.87,1.73-3.32,5.77-3.97,9.25-2.49,2.03.86,3.37,3.74,6.59,6.57,2.65-15.68,8.19-35.57,22.62-36.79,6.54-.55,10.98,3.57,11.48,9.95.66,8.36-1.66,16.05-4.43,23.5Z" fill="#4b217c"/><path d="M1206.47,709.63c-.69,1.87-1.5,5.16-3.52,5.78-5.9,1.82-8.23,15.5-5.15,17.32,4.48,2.65,13.07-10.41,18.36-18.33,2.03-3.03,6.38-4.08,8.93-3.07,3.17,1.26,4.6,5.39,3.35,9.31-5.31,16.66-22.84,28.87-41.22,25.56,13.2-4.36,24.67-10.36,30.61-23.04-5.78,1.27-7.5,6.38-11.16,9.53-5.67,4.88-11.6,9.1-19.17,8.83,1.03-16.06,3.82-31.07,8.69-45.92.4-1.22.44-1.69-.46-2.38-3.48-2.67-11.53,36.57-11.44,52.27-9.68-13.2-4.55-42.22,2.26-55.92,4.6-9.27,14.1-13.48,19.1-8.73s1.6,17.59-1.53,27.72c-.27.88,1.95,1.56,2.34,1.06Z" fill="#b594e4"/><path d="M944.35,856.61c-16.92-7.22-28.28-18.78-25.05-36.38,6.18,6.81,12.56,11.59,20.53,15.42,20.85,10.02,42.63,15.96,65.67,19.4,25.89,3.87,50.93,6.39,77.32,4.85,43.35-2.53,84.94-12.21,124.64-28.96,20.19-8.52,37.03-20.06,49.81-37.95,4.69,26.1-23.26,42.08-45.24,53.18-13.28,6.71-26.07,11.37-40.35,15.89-42.32,13.38-85.93,19.24-130.32,15.88-33.8-2.56-66.02-8.11-97-21.33Z" fill="#784fcf"/><path d="M1060.43,701.66c5.53,18.76,5.16,48.79-2.32,44.24-5.31-3.23-15.4-40.74-4.47-50.96,2.95-.99,6.02,4.11,6.79,6.72Z" fill="#b694e6"/><path d="M1021.37,785.15c-.89-.4-2.21-1-2.18-1.75.41-9.86,3.58-22.1,7.4-31.18l19.59,32.9-24.81.03Z" fill="#9d75db"/><path d="M974.11,816.91c-9.95-10.87-20.28-35.76-15.46-41,4.01-4.36,18.68,22.23,15.46,41Z" fill="#b795e5"/><path d="M1176.22,725.37c-.36,6.17.93,11.15,2.5,18.1-12.5-7.01-20.5-29.67-14.49-34.32,4.19-3.24,12.62,5.66,11.99,16.22Z" fill="#b08ce6"/><polygon points="1026.6 752.22 1021.37 785.15 1005.62 784.82 1026.6 752.22" fill="#ba97e9"/><path d="M1074.97,742.7c-2.69,2.92-4.87,6.1-9.72,4.12,4.51-8.54,8.76-18.38,17.66-23.74,6.42,4.61-.99,12.08-7.94,19.62Z" fill="#bb9be7"/><path d="M1052.88,744.35c-1.64,3.08-7.51,1.09-9.67-2.43-2.44-3.97-5.82-7.24-4.88-12.6,7.33.59,12.94,6.66,14.55,15.03Z" fill="#af8be0"/><path d="M977.35,815.49c-.86-8.53.15-17.06,5.86-24.36,4.09,8.71,1.31,18.15-5.86,24.36Z" fill="#b694e3"/><path d="M1245.5,759.02c-2.1,1.58-3.5,2.33-5.87,2.89l2.55-5.94c1.41.76,2.12,1.28,3.32,3.04Z" fill="#aa87d4"/><path d="M1067.45,736.55c-1.08-2.04-.69-3.75-.12-5.16.46-1.14,2.23-2.08,4.42-1.86l-4.29,7.02Z" fill="#9f79cd"/><path d="M962.33,822.95c2.12-.62,2.73-1.63,1.84-3.04-8.54-2.83-20.37-11.55-18.79-14.91s15.53,2.61,23.88,10.84c1.23,1.22,1.85,3.41,2.93,3.85,1.55.64,4.52.71,6.15-.67,10.9-9.2,12.34-27.1,5.97-29.73-1.72-.71-4.2-.54-5.16,1.51l-3.26,6.93c-2.78-10.07-6.12-18.37-13.89-24.73l61.47-22.93-22.57,37.84,50.04.11-22.92-40.1,10.96-5.35c.91-.44,2.74,1.55,3.16,2.38.46.92-1.49,1.91-2.22,4.8,11.79-1.95,22.47-1.22,34.21,2.16,1.02.3,1.72-3.48.33-4.39,6.71-5.84,11.83-12.06,14.56-21.06,24.01-3.27,49.76-1.78,73.72,3,5.14,11.7,16.09,20.21,29.3,20.62,8.61.27,16.22-3.29,23.41-7.5,5.13,1.34,9.56,3.56,14.44,6.17-2.04,3.38-3.34,6.24-4.34,9.64-3.16-3.68-3.09-8.56-7.28-7.7-7.71,1.58-2.53,25.02,2.34,26.19,5.63,1.35-8.16-12.66-1.56-23.97,4.19,6.23,3.53,12.92,5.24,20.36,2.98-8.92,3.77-17.81,9.65-25.32,2.01-2.57,4.1-5.71,7.37-5.26.97,12.25-5.97,20.38-12.65,30.62l21.02-13.41c1.09-.69,5.49-.94,5,1.22-1.02,4.47-6.22,9.29-10.84,10.97-7.36,2.69-16.29,2.4-21.12,10.34,9.59-2.98,16.97-8.23,26.93-7.42.47-3.4,1.75-5.04,4.77-6.3,10.72,19.36-11.76,40.04-30.57,50.63-43.57,24.54-110.47,39.15-160.59,38.17-31.05-.6-60.65-4.36-90.38-12.36-17.93-4.82-51.82-17.76-53.57-33.53-1.68-15.06,20.33-29.19,35.59-35.59-1.02,11.82,3.32,21.04,8.7,31.06-8.45-3.91-18.29-8.94-21.25-3.77-3.96,6.93,10.03,14.59,19.95,19.65Z" fill="#b694e7"/><path d="M962.33,822.95c1.03-.9,1.31-1.87,1.84-3.04,2.71.9,4.54.38,6.2,3.6s6.02,4.96,9.75,5.69l21.46,4.15c1.03.2,1.1,1.62,1.22,2.09.15.57-.3,1.72-1.49,1.49l-24.08-4.68c-6.09-1.19-9.87-6.73-14.9-9.29Z" fill="#6539b0"/><path d="M1191.91,818.05c-8.36,2.44-13.02,7.83-21.01,11.25,3.74-9.02,13.39-11.84,21.5-14.66,12.18-4.25,19.39-13.37,19.91-26.41.16-4.15-.25-9.67,4.72-12.28.75,12.56-1.74,25.57-10.17,34.74-3.53,3.84-9.7,5.83-14.95,7.36Z" fill="#5f34aa"/><polygon points="1166.53 778.73 1146.05 788.86 1115.29 778.98 1115.39 744.93 1138.81 734.49 1166.08 745.57 1166.53 778.73" fill="#4c2184"/><polygon points="1144.25 785 1118.23 776.54 1118.03 748.45 1143.95 757.4 1144.25 785" fill="#8357dd"/><path d="M1164.22,776.03c-5.41,4.22-10.83,6.43-17.1,9.09l.06-27.94,16.32-7.92.73,26.78Z" fill="#7347d0"/><polygon points="1145.75 754.66 1121 745.85 1138.79 737.67 1160.97 746.75 1145.75 754.66" fill="#ac88e5"/><path d="M1104.94,842.47c-13.31,7.5-16.83-4.08-24.94,3.1-2.09,1.85-4.78,2.75-7.42,2.48-6.32-.63-6.95-7.59-14.61-12.13.55-7.03,6.17-15.5,13.71-15.14s12.14-1.63,18.87-3.57c14.13-4.08,34.43,13.95,27.81,17.69l-13.42,7.56Z" fill="#4d257b"/><path d="M1091.06,841.09c-7.63-4.17-12.45,3.81-17.43,3.98-4.36.15-6.55-6.46-12.62-10.78,2.55-2.77,6.01-10.37,10.5-10.39,7.95-.04,13.33-1.97,20.55-3.93,9.13-2.48,19.73,4.8,24.83,12.02l-13.24,7.92c-4.02,2.41-8.43,3.45-12.59,1.18Z" fill="#f4ecf4"/><path d="M1265.69,438.57l-.21,13.44c-4.24-1.62-5.05-5.63-7.55-8.81-.48,3.26,1.08,6.08-2.01,8.73-1.24-4.85-1.26-9.27,0-14.36,4.23,2.22,4.25,5.71,7.18,8.65.79-2.41.19-4.67.2-6.94.51-1.03,1.56-1.21,2.38-.71Z" fill="#794eb2"/><path d="M1173.39,438.54c.3,4.07.58,8.5-.24,13.46-4.8-2.16-4.7-5.98-7.21-8.67l-.98,7.68-1.64.04c-.58-4.16-.82-8.5.26-13.5,4.32,2.16,4.48,5.55,7.2,8.67.85-2.38.31-4.68.34-6.95.48-1.08,1.53-1.18,2.27-.73Z" fill="#7448ac"/><path d="M1314.05,447.16c-1.08-.83-2.32-.9-4.36-1.19,1.13-2.23,2.91-1.79,4.53-1.58,2.11.28,2.26,2.31,2.07,4.6s-2.18,2.06-4.55,2.36c-4.32.56-6.58-1.72-7.2-5.33-.56-3.31.83-6.69,4.43-7.71,2.88-.81,7.48.39,6.63,4.49-2.52-.85-3.93-2.71-5.13-2.73-2.25-.03-3.61,2.16-3.49,4.71.08,1.82.41,3.33,1.8,4.12,1.11.64,3.42,1.63,5.26-1.73Z" fill="#7448a9"/><path d="M1225.34,450.88c-3.09,1.2-3.63-2.04-4.76-2.32-2.03-.51-3.86,1.35-6.14,3.18.09-9.6,5.56-16.87,7.12-12.19l3.77,11.33Z" fill="#7346ab"/><path d="M1280.8,445.34c3.23,1.95.08,5.62-2.36,6.08-2.63.49-6.4-.57-6.05-4.08,2.5-.62,3.97,3.11,6.05,1.74,4.04-2.66-6.57-2.94-5.88-7.86.34-2.42,2.79-3.35,4.94-3.16,1.92.18,4.33,1.57,3.87,4.41-2.59-1.86-4.66-3.12-6.78-.88l6.21,3.75Z" fill="#6c3da7"/><path d="M1183.92,445.14c3.28,2.06.11,6.17-3.38,6.47-2.12.18-5.78-1.8-4.79-4.52,1.67.24,3.2,1.7,3.88,2.2.73.54,3.3-.45,2.44-2.13-1.02-1.18-4.94-1.47-5.85-3.61-1.21-2.85.37-5.1,3.08-5.34,2.29-.2,5.79.31,5.19,4.34-2.48-1.33-3.91-3.44-6.76-1.29l6.19,3.89Z" fill="#7348a9"/><path d="M1323.82,445.94c-2.26-.69-3.04.57-3,1.85.09,2.99,5.37-.31,6.21,3.01-2.6,1-5.84.67-8.49.25l-.04-12.37c3.13-.62,5.29-.65,8.77-.09-1.29,3.56-6.32.06-6.45,3.14-.05,1.29.76,2.59,2.98,1.92,2.86-.86,2.84,3.15.02,2.29Z" fill="#7046a9"/><path d="M1289.02,440.92c-.49,3.84.82,7-.99,11.05-2.81-3.4-1.68-6.9-1.38-10.86-1.37-.59-3.1-.36-4.89-2.04,3.46-1.22,6.99-.73,11.41-.51-.54,1.78-2.15,2.05-4.15,2.36Z" fill="#6935a8"/><rect x="1236.23" y="437.98" width="3.02" height="13.51" transform="translate(-13.11 38.32) rotate(-1.76)" fill="#9d7fc2"/><path d="M1231.95,440.24c-2.58,1.11.7,7.61-2.17,11.47-2.74-3.61-.09-10.27-1.51-10.94l-3.41-1.61c3.06-.79,6.08-.71,10-.14-.94,1.28-2.24.93-2.91,1.21Z" fill="#6b3ea3"/><rect x="1198.18" y="438.68" width="2.43" height="12.15" fill="#6a37a6"/><rect x="1158.08" y="438.68" width="2.43" height="12.15" fill="#6c43a4"/><circle cx="1246.98" cy="444.81" r="6.55" fill="#764caa"/><path d="M1247.23,449.19c-2.81.28-3.75-2.35-3.88-3.92-.18-2.09.76-4.85,3.46-5.02,2.54-.16,3.58,2.3,3.73,3.97.16,1.86-.45,4.68-3.3,4.97Z" fill="#f3eff8"/><path d="M1212.53,450.4c-.94,4.99-4-4.9-6.72-3.84-.66.78,1.35,4.16-2.37,4.99l-.35-12.78c3.36-.93,6.89-.73,9.45,1.42l-1.6,7.54c.29.65,1.72,2,1.59,2.67Z" fill="#6839a4"/><rect x="1205.63" y="440.1" width="4.15" height="3.97" transform="translate(-6.32 17.68) rotate(-.84)" fill="#d2bce7"/><path d="M1303.82,451.42c-3.11-.89-3.76-2.8-5.44-2.93-2.1-.16-3.14,1.64-6.26,3.33,1.05-5.44,2.18-9.64,5.88-14.46,3.72,4.52,4.02,8.44,5.82,14.06Z" fill="#7042aa"/><path d="M1298.46,442.64c.81-.16,1.06,2.81-.06,3.35-.81.39-1.64-.14-1.8-.66-.25-.81.3-2.38,1.86-2.69Z" fill="#d4bee7"/><path d="M1196.14,441.74c.72,6.1-6.35,1.22-8.06,10.07-2.07-3.74-1.53-7.82-.98-12.06.24-1.88,3.52-1.57,4.84-1.41,2.78.35,3.98,1.58,4.2,3.39Z" fill="#6534a3"/><circle cx="1191.33" cy="442.37" r="2.33" fill="#d8c3ea"/><path d="M1298.06,270.05l-18.27,54.59c-.95,2.85-1.03,5.72-3.32,7.71l-1.54-.31c-2.66-4.98-7-9.09-12.69-10.18-2.47-.47-7.7-1.33-8.02.4-14.11,2.58-18.37,15.63-21.52,28.16l-1.52.61-33.1-95.84c1.23-.45,3.02-2.22,3.42-3.39.37-1.1-.2-3.13-.45-5.8l96.3,14.46c-1.75,4.52-2.38,7.81.7,9.61Z" fill="#fbf8f3"/><path d="M1276.47,332.34l1.33,3.24c-.84,2.12-1.91,2.02-2.27-.21l-2.7.27c-2.21-4.43-5.38-7.63-9.52-9.6,4.67,5.96,9.29,12.56,9.21,20.36,3.29,1.16,2.26,3.81-1.16,3.61l-2.82-.34c-5.84-10.79-8.76-16.18-8.76-16.18-15.03-23.81-28.41,28.47-26.41,37.32.3,1.34,4.17,1.9,4.68,1.6l1.58-14.2c6.85-33.3,30.31-19.32,27.07,6.53l2.4,1.12-.33,10.68c7.87,2.87,2.21,6.33-3.99,3.9l-1.04-6.48.07-3.71c-.82-2.25-1.13-4.74-.93-7.47-2.64-1.25-4.04-4.24-4.23-8.95-1.38-6.51-2.63-4.12-3.74,7.18l-2.63,1.21c-.5,3.24.53,7.22-1.29,10.39-1.43,2.49-6.22,5.51-9.04,5.16l-14.14-1.72.99-11.89,2.38-13.13c2.28-12.58,9.25-28.15,21.5-30.27l1.07-6.71c3.07.47,3.67,2.65,3.06,5.72,9.08.19,16.37,4.6,19.65,12.58Z" fill="#4d2483"/><path d="M1263.73,373.95c1.5,1.39,1.54,3.82,1.29,6.21,2.22.36,3.87.54,6.18-.31-1.35-.96-2.74-.86-4.95-1l.44-14.12.17-8.6c.43-3.88,1.92-5.92,4.49-6.13l1.16-3.61c-1.68-3.16-.78-10.09,3.01-11.02.55-.16,1.23-.08,2.27.21,5.55,13.49,8.65,27.99,10.02,42.69l-10.08,3.59c-3.8,1.36-9.17.14-13.13-1.06-1.63-1.12-.92-5.28-.88-6.86Z" fill="#9c7d9a"/><path d="M1262.87,362.77c.36,1.73.22,3.13-.41,4.22-2.35-1.42-5.15-1.09-8.48-1.31-1.4-.09-1.72-2.94-1.7-3.47.94-6.09.8-12.36,4.9-17.39,4,5.71,4.55,11.75,5.69,17.96Z" fill="#f9f6f5"/><path d="M1263.8,370.23c-1.35-.28-1.42-1.86-1.34-3.25l.41-4.22c.45,2.45.99,4.42.93,7.47Z" fill="#9c7d9a"/><path d="M1271.35,350l-4.66,14.73c-3-10.18-3.96-24.07-13.21-23.61-9.94.5-13.02,20.38-12.71,34.07l-10.19-1.27c1.77-16.63,4.25-38.4,16.57-47.81,9.47-7.24,18.52,11.3,24.2,23.89Z" fill="#8459d0"/><path d="M1275.53,335.37c-.07,3.79-1.83,7.38-3.01,11.02-.63-.32-1.75-1.04-1.99-1.99-2.19-8.56-7.33-14.83-12.85-21.27,9.85-1.08,14.01,6.13,17.85,12.23Z" fill="#643cb4"/><path d="M1309.43,275.94l-11.37-5.89c-5.14,2.18-4.8-3.74-4.25-7.68l-88.83-13.33-1.08-.08c.67,3.97-1.98,9.26-5.81,6.22.41,3.95-11.16,7.89-13.59,4.83l-2.32,1.69c-2.91-3.69-4.93-8.01-6.08-12.98l.25,27.53c4.61.21,7.28,1.67,7.99,4.38,1-.16,2.42.08,2.44.79.68,27.59,1.31,55.54-1.23,82.98l-2.79.31-11.87,4.17-31.4-4.13-.13-84.18c5.44-3.13,11-4.29,17.66-5.21l.2-54.22c6.84-1.04,14.13-5.26,21.42-4.13l174.43,26.99.14,56.78,19.94,3.69.22,80.28-11.31,7-30.24-4.82-.36-74.53c-.02-4.77,2.02-7.32,2.09-11.28l.6-34.97-17-2.56-7.74,12.34Z" fill="#4b2177"/><path d="M1343.72,245.76c-1.95,1.02-5.95,2.93-9.65,2.36l-167.8-25.86c3.67-2.04,7.83-1.99,12.67-2.59l164.78,26.09Z" fill="#efdff3"/><path d="M1184.5,260l-.15,20.63-10.42-2.46-.3-35.24c0-.87,1.41-1.12,1.95-.88.81.36,1.54.85,1.98,2.26l4.04,12.96c.54,1.74,1.82,2.59,2.92,2.73Z" fill="#f7f0ef"/><path d="M1198.61,249.74c.23,3.49-6.81,5.82-13.87,6.95l-4.96-13.75,14.89,2.34c2.57.4,3.8,2.41,3.94,4.46Z" fill="#c8add7"/><polygon points="1350.62 259.12 1337.04 262.66 1337.24 250.94 1350.14 247.76 1350.62 259.12" fill="#ecdaed"/><path d="M1179.01,239.36l-18.43-2.46c-.8-3.87-.97-7.04.05-11.16l18.38,13.63Z" fill="#ebd9ed"/><path d="M1348.88,292.44c-3.89,3.62-7.37,6.03-11.84,8.06l-.08-16.39,11.91,8.33Z" fill="#eee5ef"/><path d="M1308.69,272.43c-3.4-1.3-7.12-2.64-9.43-5.47-1.13-1.39-.09-4.69.82-5.87l10.96,1.67c-.04,3.24-.37,5.61-2.35,9.67Z" fill="#d1b9de"/><polygon points="1270.49 253.38 1254.96 251.08 1270.35 242.17 1270.49 253.38" fill="#e0cbe6"/><path d="M1208.12,244.01l-18.45-2.49,9.07-8.18c3.11,3.26,6.29,5.58,9.38,10.66Z" fill="#e3cde8"/><path d="M1181.55,227.62c.69,3.86,1.03,6.78.66,10.68l-16.51-12.7,15.85,2.03Z" fill="#e6d6eb"/><path d="M1308.8,258.84l-16.29-2.25c1.74-3.65,3.74-5.55,6.58-8.04l9.71,10.3Z" fill="#f1e6f2"/><path d="M1196.9,230.23c-3.09,3.56-6.39,6.46-10.72,9.43-1.32-4.22-1.6-7.14-1.78-11.49l12.51,2.06Z" fill="#e6d5eb"/><path d="M1330.72,261.98c-4.38.06-8.51-.69-13.61-1.88l7.61-8.09c2.46,3.16,3.66,4.74,6,9.97Z" fill="#e6d2eb"/><path d="M1229.83,246.89l-13.7-1.88,13.54-8.19c.86,3.34.88,5.36.16,10.07Z" fill="#efe3f2"/><polygon points="1350.11 279.08 1339.76 278.66 1349.82 267.05 1350.11 279.08" fill="#e4d2ea"/><path d="M1285.75,255.09c-4.46.33-7.77-.56-12.1-1.27l.21-9.72c4.24,3.29,7.83,5.99,11.9,11Z" fill="#e1cce9"/><path d="M1245.7,249.01c-4.44.41-7.87-.53-12.21-1.25-.69-3.38-.76-6.09.19-9.75l12.02,11Z" fill="#eee0f0"/><path d="M1250.4,238.27c.43,3.48.02,6.6-.43,9.56-4.94-3.44-8.3-6.64-12.02-10.67l12.45,1.11Z" fill="#ead9ef"/><path d="M1337.13,275.9c-.41-3.89-.48-6.72.11-10.25l10.98-2.04c-3.46,4.83-6.36,8.09-11.09,12.29Z" fill="#e9daeb"/><path d="M1169.6,264.81l-9,8.67-.18-13.8c3.54,1.31,5.29,2.42,9.19,5.13Z" fill="#eee1ed"/><path d="M1265.14,241.2l-12.07,6.75.83-8.87c3.82.23,6.23.07,11.24,2.12Z" fill="#dfc8e7"/><path d="M1312.22,247.84c.97,3.43.95,6.33-.1,9.83l-9.94-10.82,10.04,1Z" fill="#eddff0"/><path d="M1211.34,232.14c.73,3.32.85,6.24-.05,9.89-3.79-3.55-6.9-6.55-9.78-10.98l9.84,1.1Z" fill="#e3cee9"/><polygon points="1170.97 277.91 1161.88 276.51 1170.84 268.29 1170.97 277.91" fill="#e0d6e6"/><path d="M1226.5,234.97l-11.22,6.91c-.75-3.2-.7-5.41-.05-8.76,3.9.12,7.04.42,11.27,1.85Z" fill="#eee0f1"/><path d="M1169.67,241.45l-8.96,8.04c-.94-3.92-.64-6.64-.16-9.73l9.12,1.69Z" fill="#f0e5f1"/><path d="M1287.76,244.21c1.06,2.99,1.04,5.55.06,8.51l-9.77-9.46c3.57-.46,5.78.19,9.71.95Z" fill="#e4cfec"/><path d="M1170.85,255.3l.08,5.87c-3.72-1.13-6.64-3.03-9.64-5.64,3.66-.85,5.71-.41,9.55-.23Z" fill="#dcc9e1"/><path d="M1349.85,281.95c.49,2.49.51,4.63-.02,7.29l-9.74-7.1,9.76-.2Z" fill="#ecdfef"/><path d="M1163.69,251.92c1.37-2.58,3.59-4.45,6.92-7.04.54,2.66.4,4.52.18,7.23l-7.11-.19Z" fill="#eedef2"/><path d="M1333.18,251.16c1.01,2.72.53,5.76.58,8.82-2.48-2.71-4.13-5.66-5.66-9.5,1.53-.11,3.53.05,5.08.68Z" fill="#c5acd4"/><path d="M1322.76,249.77l-6.5,6.89c-1.08-2.95-.85-4.85-.07-7.58,2.13-.22,3.68-.47,6.57.69Z" fill="#eedff1"/><path d="M1350.59,300.41c-2.28.99-4.97.85-7.77.53l5.55-4.21c.92-.22,2.77.32,2.22,3.68Z" fill="#d5c2e1"/><path d="M1296.5,245.98c-1.2,2.05-2.52,3.9-4.33,5.69-1.4-1.99-1.18-4.21-.52-5.57.52-1.07,3.23-1.22,4.85-.12Z" fill="#dfcbe6"/><path d="M1182.36,360.36l-10.83,5.27.05-78.67c3.27-2.03,6.96-2.97,10.44-2.78l.34,76.18Z" fill="#e4cfe8"/><path d="M1176.49,282.52c-10.3,3-19.85.96-14.97-3.19l14.97,3.19Z" fill="#e8daec"/><path d="M1156.61,282.58c-3.36-.6-5.65-.31-8.52-2.39,2.79-.75,5.48-1.79,8.56-1.57.9.35.85,3.6-.04,3.96Z" fill="#e5d6eb"/><polygon points="1169 365.88 1142.12 362.28 1142.23 283.06 1168.86 287.03 1169 365.88" fill="#f2e7f2"/><circle cx="1156.06" cy="321.63" r="3.27" fill="#93777e"/><path d="M1161.58,331.02c6.41,4.6,6.78,17.21,1.67,22.41-2.64,2.69-7.74,4.09-11.6,1.53-7.87-5.22-8.94-17.73-1.88-24.04,3.4-3.03,8.57-2.23,11.82.1Z" fill="#4f2680"/><path d="M1162.89,349.13c-1.37,2.73-3.78,4.2-5.55,4.41-2.54.31-5.33-.7-7.03-3.28-3.21-4.9-3.52-12.48.73-17.01,2.73-2.91,8.21-1.93,10.37,1.17,2.93,4.2,3.89,9.89,1.48,14.72Z" fill="#7048bb"/><path d="M1166.43,302.28c1.2,6.44-1.91,13.81-8.54,14.54-7.32.81-12.02-6.22-12.08-12.95-.06-6.26,3.49-11.05,9.18-11.51s10.17,3.1,11.44,9.91Z" fill="#4e267f"/><path d="M1163.75,305.61c-.2,4.41-2.22,9.01-7.01,8.85-3.89-.13-6.9-4.42-7.79-7.1-1.42-4.25-.39-9.24,3.45-11.57,2.71-1.64,6.11-.85,8.16,1.08s3.38,4.54,3.18,8.73Z" fill="#6940b8"/><path d="M1363.17,387.59l.22-76.56c0-1.83,4.95-2.8,7.14-3.26l.14,74.72c-2.33,2.22-4.34,3.69-7.5,5.1Z" fill="#e1cbe8"/><path d="M1362.98,305.31c2.25-1.55,3.6.85,1.53,2.09-8.35-.21-16.53-.9-24.34-3.02,7.7-1.55,14.38-.07,22.81.93Z" fill="#d6c4e2"/><polygon points="1360.58 388.43 1334.51 384.47 1334.37 306.61 1360.63 310.55 1360.58 388.43" fill="#f4eaf4"/><circle cx="1347.73" cy="344.54" r="2.8" fill="#9b818c"/><path d="M1356.23,373.75c-1.72,3.46-5.32,4.89-7.98,4.95-3.05.07-6.23-1.31-8.22-4.16-3.41-4.88-3.99-11.31-1.83-16.83,1.45-3.71,4.53-5.9,7.81-6.2s6.96,1.1,9.17,4.4c3.35,5,4,11.91,1.05,17.84Z" fill="#4e277f"/><path d="M1351.38,374.87c-3.72,3.07-8.46.42-9.92-2.93-3.1-7.14-1.62-17.03,4.66-18.01,2.14-.34,4.44.26,6.19,2.48,3.91,4.98,4.63,13.87-.93,18.46Z" fill="#6a43b6"/><path d="M1352.79,317.34c5.9,3.79,7.25,14.9,1.63,20.65-2.23,2.28-6.36,3.48-10.01,1.58-7.94-4.13-9.37-16.1-2.64-22.05,3.15-2.79,7.85-2.22,11.02-.18Z" fill="#4a2279"/><path d="M1351.7,319.69c3.97,2.7,4.97,11.08,1.58,15.86-1.27,1.78-3.79,3.32-6.74,2.37-3.87-1.24-5.77-5.06-6.09-8.2-.39-3.82.44-8.64,3.98-10.79,2.31-1.4,5.45-.48,7.28.76Z" fill="#673cb6"/><path d="M396.19,385.43c-2.83,1.96-2.78-1.81-5.54-2.53-1.68-.43-3.16,1.47-4.05,2.53l-11.35.37c-.07-5.22-.75-9.08,1.38-13.76,2.44,3.99.79,7.03.72,11.03,2.54,1.04,4.92,1.1,7.67.62,1.2-4.14,1.62-8.34,5.36-11.92,3.42,4.17,3.9,8.96,5.82,13.64Z" fill="#8156b1"/><path d="M284.14,372.9c-.77,4.14-1.8,8.99-3.93,13.01-4.49.07-2.64-10.92-5.61-4.81l-.68,3.74c-.22,1.21-2.58,1.55-2.82.65l-3.38-12.66c.36,0,1.41-.1,1.59-.16l3.52,7.98c.87-2.98.24-5.65,3.29-8.5l3.2,7.79c2.57-3.55,1.07-7.88,4.82-7.04Z" fill="#7343aa"/><path d="M345.87,386.13c-3.28-2.08-1.96-4.35-2.27-7.34l-3.64,7.65c-2.65-1.62-3-4.22-4.22-6.62-.59,3.18-.03,5.45-2.74,6.63-.67-4.69-.81-8.73-.05-13.38.11-.67,2.76-.53,2.98-.01l.93,2.2,2.99,6.59c1.2-4.16,1.37-7.88,5.8-9.89,1.17,5.06,1,8.38.22,14.17Z" fill="#7041a9"/><path d="M419.94,386.73c-2.74-1.22-3.44-3.34-5.01-3.59-2.47-.39-3.39,1.65-6.34,3.43.29-4.88,2.09-9.39,4.67-13.72,1.42-2.38,5.98,5.95,6.68,13.88Z" fill="#7a4aae"/><path d="M293.55,379.01c1.86,1.96-4.32.86-5.19,2-.41.54-.24,2.6,1.25,2.6,1.88,0,3.99-.75,5.36,2.03l-9.17.2-.08-12.69,6.44-.47c2.59-.47,2.63,3.05-.07,2.32-1.43-.39-2.84,0-3.38.28-.46.24-.61,1.21-.41,1.91.57,1.96,3.86.36,5.26,1.82Z" fill="#875eb3"/><path d="M310.03,383.44c2.07.83,4.16-1.27,6.5-2.51.79,3.73-2.65,5.05-4.87,5.07-3,.03-5.58-1.58-6.3-4.64-.89-3.78.58-7.5,3.94-8.5,3.15-.94,7.33.48,7.74,4.49-2.75.66-4.33-2.31-5.54-2.48-2.89-.36-3.6,2.44-3.71,3.86-.1,1.2-.32,3.68,2.25,4.71Z" fill="#7c4fac"/><path d="M356.7,379.04c1.7,1.96-3.9.92-5.41,1.99-.63.45-.55,2.99,1.3,2.76s4.07-1.05,5.12,1.94l-8.94.13v-12.72c2.17-.6,3.93-.33,6.55-.31,2.5-.44,2.4,2.84-.12,2.21-1.44-.36-2.82.02-3.36.21s-1.02,1.26-.63,2.03c.87,1.74,4.21.29,5.49,1.76Z" fill="#7448a9"/><path d="M407.74,385.59l-11.08.05,6.32-10.15c-2.77-1.11-4.19-.63-5.6-.61l-.21-1.48c3.03-1.25,6.31-.86,10.19-.38l-6.52,10.86c2.24-.13,4.65-1.56,6.91,1.7Z" fill="#7647a9"/><path d="M304.45,385.46c-2.28.74-4.66.39-8.01.37l.41-12.78h1.75s.35,10.54.35,10.54l5.45.34c.63.56.26,1.28.04,1.53Z" fill="#784caa"/><circle cx="324.35" cy="379.32" r="6.62" fill="#6d3ba5"/><path d="M323.86,383.74c-2.69-.11-3.09-2.62-3.11-4-.03-1.83.51-4.39,2.95-5,2.69-.67,4.15,2.07,4.33,3.9.23,2.3-.77,5.24-4.17,5.1Z" fill="#e9dcef"/><path d="M373.1,378.33c-1.25,2.98-4.95.65-8.43,8.33-1.68-4.76-.66-8.64-.84-13.59,2.3-.58,5.09-.74,7.62.36,1.88.82,2.39,3.14,1.65,4.89Z" fill="#845ab2"/><circle cx="368.44" cy="376.86" r="2.26" fill="#d3c0e4"/><path d="M464.78,221.19c-2.43.74-4.41,0-5.62-1.74-.68-.98-.32-2.9-.87-4.72l1.77,1.76c.79-3.2,2.71-3.75,4.67-3.62,1.62.11,3.53,1.05,3.42,3.45-.1,2.19-1.89,3.75-3.36,4.86Z" fill="#6c4795"/><path d="M458.29,214.74c2.06,1.13,3.05,2.32,2.97,3.56,1.46.64,2.64,1.6,3.53,2.89,1.46-.45,4.91-.42,4.94,1.49l.25,15.21c-1.39,1.39-2.92,2.01-5.64,2.37l-.24,73.1-75.52.19c2.41,2.86,5.5,4.45,4.96,8.5l-81.08-.17c2.52-6.26,6.84-7.89,10.21-11.9l-.8-65.52c-.02-1.35-4.69-2.06-6.29-1.07l-2.15,61.63c-.11,3.14,1.01,5.16,2.49,8.06l-70.53.3.03-72.49c-2.44-.75-4.08-1.43-4.84-2.51-.61-.87-2.4-13.83,2.35-18.25-.54-1.54-1.83-4.08-1.14-5.45.73-1.47,2.38-2.15,4.2-1.98,1.7.15,2.93,1.2,3.16,3.06.25,2.08-.59,4.03-4.09,4.49.72,1.2,2.16,1.24,3.31.86,2.45-.8,7.7-24.44,25.27-44.67,17.86-20.56,41.28-34.15,68.86-37.12,1.52-5.31,4.96-8.85,10.54-10.09l.39-25.93c.11-7.13.38-13.81-1.44-20.66-.39-1.47,1.26-3.24,2.34-3.44,1.2-.22,3.02.69,3.72,3.03,6.86-1.71,12.8.43,18.67,4.06,6.83,4.22,16.95-1.27,18.32.71.55.79.2,2.78-.59,3.65l-7.35,8.09c3.54,1.85,6.71,2.12,9.05,6.21l-16.44,6.18c-7.88,2.96-20.53-5.26-22.95,2.28-1.66,5.18-.73,10.8-.28,16.01,5.32,1.39,8.69,4.18,10.51,9.59,42.75,5.1,78.59,34.23,91.28,75.72Z" fill="#492173"/><path d="M374.77,143.16c28.76,8.88,50.29,42.09,51.6,71.73.17,3.82.24,5.6-4.12,6.23l-169.74.37c16.29-54.42,67.16-88.98,122.26-78.33Z" fill="#f2e6f0"/><path d="M422.25,221.12c1.95-1.96,1.99-4.28,1.57-6.99-4.65-30.3-13.86-46.23-38.55-64.66l-10.5-6.31c40.41,7.81,72.04,38.11,82.72,78.13l-35.24-.17Z" fill="#dfcbe7"/><path d="M381.48,254.29l-50.66-.03c3.19,3.22,3.68,4.74,3.66,8.19l-.24,47.36c-2.75.59-4.7.46-7.57.15.38-2.37,1.4-3.18,3.33-5.26-2.07-1.11-2.76.66-4.48,1.83l-.63-63.15,59.11-.24.16,61.74c-1.75,1.43-2.41,2.9-1.8,5.07-2.15.63-4.3.78-6.68-.14l.2-52.89c2.51.35,5.19.45,5.61-2.63Z" fill="#e7d7ec"/><path d="M385.45,224.51c8.28-.4,16.63-.43,25.03-.08,1.75,1.71,1.01,2.94-1.7,4.07-31.86,9.43-66,11.45-98.5,11.13-22.18-2.14-43.98-7.1-65.3-14.89l140.47-.24Z" fill="#f4e8f2"/><path d="M310.27,239.64c6.57.63,12.61-1.01,19.06-1.49,27.74-2.06,54.55-4.34,81.57-12.83l-25.45-.81c.11-.43.94-.93,2.17-.93l57.11-.03,21.35,1.78c-20.8,7.05-41.45,14.11-63.86,14.37l-85.03.97c-2.55.03-4.74.25-6.91-1.03Z" fill="#e1cfe9"/><path d="M373.15,309.76c-5.89,1.18-11.17.6-17.08.24l.19-52.61c5.35-1.07,10.69-.81,16.73-.33l.16,52.71Z" fill="#ddc8e5"/><path d="M353.52,310.01h-16.62c-.46-17.91-.48-34.56.02-52.66,5.18-1.02,10.44-.65,16.38-.21l.22,52.87Z" fill="#dbc3e3"/><path d="M394.54,265.06c1-.79,2-.72,3.16-.55,1.52.23,2.03,27.16,2.07,30.67l-1.17,1.8-.5,13.44c-3.82.56-7.35.6-11.18,0-.76-22.52-.61-44.42-.24-66.99,2.4-.58,4.5-.6,7.01-.11.66,7.5-1.18,14.99.86,21.76Z" fill="#f0e2ef"/><path d="M390.18,103.98c-6.77,2.94-13.09,6.23-20.07,4.75-4.65-.99-8.83-2.41-13.9.58.29-6.72-1.48-14.42.46-21.72,1.36-5.12,10.02-3.5,13.51-1.19,6.82,4.52,13.23,5.12,21.4,3.58-2.97,3.54-6.69,4.72-8.75,9.05l7.36,4.95Z" fill="#e7d4ec"/><path d="M454.86,241.69c-1.25.13-2.58-1.54-3.36-3.41l-5.96,3.2-35.81,7.7c-5.17,1.11-8.56,3.9-8.67,9.73l-.56,14.64c-2.58-1.02-2.96-7.42-2.46-10.38-1.25-6.57-2.16-13.69-.65-20.15,23.44-1.33,46.25-6.8,69.59-14.88.77,2.74.73,5.94-.28,8.77l-10.92,2.57c-1.06.25-1.16,1.78-.92,2.22Z" fill="#dfcae6"/><path d="M388.77,319.45l-70.78-.21c1.68-3.34,4.72-5.95,7.69-5.95h57.08c2.56,0,5.43,2.8,6.01,6.16Z" fill="#eee2f0"/><path d="M400.5,273.55l.53,21.74-2.43,1.69-1.19-26.06c-.12-2.56-.63-4.66-2.86-5.86.99-.26,1.69-1.11,1.68-2.48l-.08-18.33c0-1.02.82-1.21,1.24-1.23.42,4.31-1.07,9.63.51,14.26.98,2.87,2.95,5.17,1.88,8.93-.77,2.72.67,5.46.72,7.34Z" fill="#bb9cca"/><path d="M346.77,138.68c-.78-2.95,3.32-6.35,6.5-5.57.21,1.8.45,3.89.02,4.58-.56.9-2.66,1.26-6.52.98Z" fill="#ddcce3"/><path d="M363.01,137.89c-2.7,1.09-4.75.55-6.18.36-1.31-.17-1.21-4.65.38-4.81,2.87-.27,4.8,2.95,5.8,4.45Z" fill="#e2d3e9"/><path d="M248.29,310.69l-.18-69.06,10.91-.24c-4.63-2.71-9.56-2.9-15.21-4-1.03-3.21-.86-6.56-.47-9.81,22.42,7.45,44.96,12.82,69.27,15.48l-1.78,67.57c-20.93.73-40.63.65-62.53.06Z" fill="#f3e8f2"/><path d="M278.8,299.28c-6.23,1.85-12,.62-19.03.73l.45-44.75c.05-4.44,5.62-5.99,8.84-5.86,3.62.14,9.17,2.27,9.23,6.93l.51,42.95Z" fill="#4e2874"/><path d="M275.97,297.25l-13.35.13.1-40.88c0-3.3,4.11-4.44,6.45-4.29,2.1.13,6.49,1.06,6.51,4.25l.28,40.79Z" fill="#f2e5f0"/><path d="M306.39,299.98l-16.85.27.1-43.54c0-3.84,5.66-5.01,8.37-4.69s7.79,2.04,7.84,5.79l.54,42.17Z" fill="#4e2876"/><path d="M303.45,297.58h-11.42c-.43-13.51-.86-26.3.17-39.58.19-2.51,3.35-3.2,4.93-3.26,1.96-.08,5.6.76,5.91,3.61,1.41,13.08.67,25.83.4,39.23Z" fill="#f1e5f0"/><path d="M454.86,241.69l6.67-.68.09,69.6c-20.66.77-40.09.67-60.52.09l-.06-15.41c-.7-.09-1.25-.19-1.26-.34-.56-5.93-.92-14.63-.72-20.57.01-.3.64-.57,1.45-.84l-.05-10.55c-2.15-6.3-.99-11.01,3.47-14.14,13.39-3.95,27-7.16,40.83-9.65,4.43-3.29,10.42-4.5,10.11,2.49Z" fill="#f1e5f0"/><path d="M448.89,299.85h-18.74s.35-44.48.35-44.48c.03-3.86,5.21-5.83,7.77-6,3.41-.23,9.04.63,9.91,4.75,1.76,8.35,0,16.93.21,25.33l.5,20.4Z" fill="#4e2775"/><path d="M446.49,296.69c-4.55,1.34-8.54.71-13.55.47l-.02-40.6c0-2.94,3.59-4.23,5.53-4.5s7.31.28,7.36,3.24l.69,41.39Z" fill="#f4e8f1"/><path d="M422.26,299.28c-5.79,2.08-11.3.8-17.93.86l.42-42.47c.04-4.05,5.36-5.6,7.93-5.93,2.91-.37,8.74.86,8.81,4.72l.78,42.81Z" fill="#522c7a"/><path d="M419.5,297.32l-12.41.1.05-37.35c0-3.2,2.68-4.74,4.77-5.49,1.7-.61,6.81-.25,6.86,2.27l.73,40.48Z" fill="#efe2f1"/><path d="M805.26,308.02l-4.31,13.79c-3.94-2.67-2.84-6.16-4.48-8.8-1.25,3.78-.64,6.91-4.5,8.47l-3.48-14.29c4.18,1.51,3.15,5.4,4.21,9.12l3.44-9.37c3.26,2.3,2.72,5.64,3.81,9.46,2.77-4.73,1.3-9.83,5.29-8.37Z" fill="#7446a8"/><path d="M764.97,318.76c1.82-.16,2.11-1.75,1.89-2.23s-1.71-.93-3.06-.65c-.84-2.48,1.42-2.47,2.63-2.34,2.89.3,3.12,1.46,3.24,3.07.28,3.76-.74,4.15-4.05,4.33-4.21.22-6.92-1.14-7.91-4.97-.71-2.74.37-6.29,3.17-7.76,2.66-1.39,7.48-.82,8.31,3.19-.29,1.81-3.06-.17-4.07-.93-2.53-1.9-4.61.89-4.85,2.51-.41,2.77.63,6.13,4.71,5.78Z" fill="#794daa"/><path d="M781.67,306.91l.26,14.68c-5.08-2.03-4.76-5.72-7.37-8.41l-.92,7.62-1.65-.04c-.7-3.95-.49-8.74-.17-12.83,4.06-1.12,3.98,4.87,8.11,8.03-.06-2.97-1.71-6.06,1.74-9.04Z" fill="#7c50af"/><path d="M864.24,319.15c.02,1.72-1.57,1.88-2.03,1.62-1.54-.87.41-4.86-2.47-5.5-2.02-.45-3.69.41-3.55,3.08.05.9.07,2-.2,2.42s-2.34.22-2.34-.29l-.06-10.42c0-1.08.06-1.51.56-2.09.48-.55,2.06-.35,1.96,1.13-.08,1.25-.02,2.89.6,3.51.71.7,2.96.82,4.05.41s1.04-2.76.83-4.39c-.16-1.28,2.53-1.36,2.54-.13l.11,10.66Z" fill="#8157af"/><path d="M850.99,314.75c1.85,1,.8,3.99.14,4.77-1.57,1.87-5.36,2.05-8.37.02-.92-.62-.8-2.71.61-2.72,1.18,0,2.59,1.29,3.16,1.79,1.15,1.02,3.38-.83,2.33-2.17s-5.34-1.71-6.04-3.3c-1.47-3.32,1.05-5.25,3.6-5.61,2.28-.32,5.68,1.15,4.76,3.87-1.33.34-2.68-.66-2.94-1.11-.5-.88-3.19-1.19-3.24,1.22l5.98,3.23Z" fill="#784caa"/><path d="M838.05,312.34c-1.31,3.58,2.51,5.96,4.12,8.11-3.36,1.26-5.2-1.55-6.44-4.82l-3.77,5.93-.18-14.2c2.76.78,2.49,2.73,2.28,5.26,2.78-.99,2.94-3.63,5.95-5.64,2.04,2.13-.95,3.92-1.97,5.35Z" fill="#7446a6"/><path d="M738.01,315.24c-1.28-.09-2.32-.11-2.95.07-.69.21-.97,1.71-.72,2.38.79,2.16,6.15-.51,6.69,2.99l-9.14-.03.03-12.84c3.19-.14,5.54-.5,8.88.36-1.55,2.6-3.46,1.91-5.73,1.65-.84-.1-1.06,2.28-.53,2.68.65.49,1.89.79,3.51.53,2.49-.52,2.43,2.75-.02,2.2Z" fill="#7d52aa"/><path d="M750.43,319.66c-2.5,2.14-5.33,1.82-8.07-.8-.59-.56-.39-2.07.73-2.08,1.3,0,2.89,2.82,4.85,1.8,4.03-2.09-4.32-3.36-5.51-5.86-.86-1.81-.15-3.83,1.32-4.56,2.13-1.06,5.56-.54,6.97,1.24,2.97,3.76-4.2.03-5.18.42-.59.23-1.19,1.07-.89,1.86.55,1.45,4.12.98,5.92,3.09,1.21,1.42,1.03,3.89-.14,4.89Z" fill="#7142a6"/><rect x="753.42" y="307.44" width="2.49" height="13.37" fill="#6f3fa6"/><path d="M827.13,320.68c-1.21-.72-1.22-4.06-2.8-4.54-.9-.28-2.49.39-1.83,2.7.75,2.63-2.9,2.73-2.57.06l.42-10.82c3.64-1.21,8.63-.61,9.36,3.12.43,2.17-4.11,4.47.24,9.08-.94.94-2.32.71-2.82.41Z" fill="#7a4dab"/><circle cx="824.7" cy="311.79" r="2.27" fill="#f6f0fa"/><circle cx="872.1" cy="314.27" r="6.57" fill="#774da9"/><circle cx="872.14" cy="314.28" r="4.15" fill="#f4f1f7"/><path d="M720.12,321.03c-1.46-4.03-.61-8.71-.64-13.05,3.25-.64,6.18-.43,8.39,1.26,1.97,1.5,2.85,5.23,1.63,7.78-1.28,2.69-3.4,4.29-9.38,4.01Z" fill="#7548a8"/><path d="M722.64,319.07c-.85-2.06-1.43-6.73-.13-8.76,1.23-1.71,4.92.74,4.83,3.09-.07,1.93.91,5.05-4.69,5.67Z" fill="#eaddf1"/><circle cx="811.83" cy="314.22" r="6.61" fill="#7345a7"/><path d="M810.89,318.58c-3.43-.59-3.93-6.86-1.4-8.23,3.26-1.77,5.48.13,5.89,2.7.36,2.25-.07,6.29-4.49,5.54Z" fill="#f0e7f4"/><path d="M884.1,316.87c-1.54.6-1.09,4.34-3.27,4.47l-.43-13.27c2.42-.55,4.85-.65,7.15.18,2.1.76,2.37,3,2.18,4.6-.29,2.4-2.59,2.83-5.64,4.01Z" fill="#8059ae"/><circle cx="884.98" cy="311.96" r="2.22" fill="#efe7f5"/><path d="M837.55,255.99l-56.25-1c.65-.81.51-2.55,2.89-3.42,1.87-.68,5.78-1.45,7.03-3.47,1.55-2.49,1.5-6.04,1.86-8.65l1.38-2.44,26.67-.16c.12-2.25,1.09-3.48,2.92-3.7,3.21,8.59-1.98,16.99,8.36,18.37,2.81.38,5.41,1.72,5.14,4.47Z" fill="#e4d4e8"/><path d="M824.05,233.15l-.36,6.11-30.62.18,2.76-19.81c6.88-16.73,10.53-33.67,12.9-52.25,3.59,15.35,5.59,30.59,11.36,45.55,2.62,6.8,4.25,13.31,3.96,20.21Z" fill="#faf7f3"/><path d="M873.31,235.5l-.17,6.01c5.07,8.1-5.87,10.45-5.69.66l-3.67,5.96c-8.38,1.63-16.29,4.34-23.73,8.12l-2.51-.27c-2.78-1.65-5.93-2.71-9.47-3.16-4.18-2.68-5.92-7.01-5.23-12.96,1.77-1.18,2.17-3.42,1.2-6.71-2.31-2.99-3.59-7-3.83-12.03-4.48-13.14-8.26-25.95-11.36-38.43l-5.05,21.56c-4.6,11.28-7.09,22-8.09,33.84l-2.64,1.36,2.19,2.36c-.2,7.16-4.85,11.55-13.97,13.18l-.85.54c-7.46-3.08-15.32-5.19-23.57-6.35-4.8-2.05-6.34-4.5-4.61-7.35-3.12-1.22-4.75.81-4.9,6.09.16,2.39-1.7,2.02-2.5,0,.12-5.95.08-11.55-1.55-18.5-2.69-.48-6.26,1.21-8.74-1.12,3.1-2.12,8.68.11,11.33-2.5,24.43-24.11,45.44-50.41,63.06-80.6,11.7,21.18,25.14,39.11,40.26,56.64,1.54,1.78,2.55,3.87,4.53,3.54l5.5-.92c.56,1.32-1.59,3.27-4.17,3.64,5.94,7.67,12.35,14.04,19.78,20.1-1.55,2.64-1.01,5.28-1.56,7.32Z" fill="#4c2478"/><path d="M752.27,241.83c5.57,9.18,15.06,5.14,24.62,10.45,1.3.72,2.81,4.69,4.41,2.71l-31.53-3.34c-1.6-.2-3.35-.29-4.26-1.25-.49-.52-.65-1.62-.63-2.48h2.5c.5-7.9,2.14-9.93,4.9-6.09Z" fill="#e2d2e7"/><path d="M776.98,248.57c-6.8-2.44-14.71-1.95-19.94-5.47l-9.58-14.48,11.91-12.51c17.28-18.15,31.8-37.54,46.33-59.13.38,23.72-5.56,45.03-14.35,65.44l-8.44,11.26c-1.36,1.81-3.83,2.14-6.33,2.27,1.41,3.98,2.02,7.45.4,12.64Z" fill="#7e51d3"/><path d="M791.18,226.86c-.81,13.55.62,22.04-9.47,22.3-1.21-6.17.73-11.39,4.43-16l5.04-6.29Z" fill="#a69b4c"/><path d="M752.27,241.83c-.79-.07-2.32-.25-2.98.15-1.58.97.17,5.97-1.92,5.94l.32-13.65,4.58,7.55Z" fill="#b099c1"/><path d="M873.31,235.5c.31,1.96-.64,6.1,1.76,7.49,1.49.86,4.33,1.11,4.66,3.2.88,5.51-25.95,9.68-39.67,10.06.42-6.16,12.44-7.39,22.32-9.94l7.38-13.34c.9,4.1.44,7.52.15,11.83,3.74,5.87,1.37-1.92,3.39-9.3Z" fill="#dfcfe4"/><path d="M838.79,235.85c-1.45,1.61-2.95,1.26-4.49-1.06-3.71-2.53-5.13-5.11-4.24-7.72-3.13-3.89-5.31-8.4-7.02-13.64-6.16-18.93-11.19-37.66-11.35-58.34,15.88,26.89,35.67,49.86,57.28,71.78l-7.48,17.24-20.37,5.45c-.96-5.28-.45-9.15.97-13.42-1.58-.65-2.47-.42-3.31-.29Z" fill="#ede462"/><path d="M830.06,227.07l8.73,8.78c-1.15.51-1.63,1.69-1.64,3.43l-.08,10.52c-2.51-.36-6.89-.85-8.53-2.94l-2.08-21.26,2.71,1.87c.2.14.63-.09.89-.4Z" fill="#b0a151"/><path d="M1361.54,659.66l-1.74,47.44c-2.81-16.19-.51-31.2-.97-47.65-14.09-1.26-25.54-10.01-30.25-21.75-5.59-13.92-2.62-28.54,7.64-39.17,9.68-10.04,24.01-13.2,37.24-8.11,12.1,4.66,21.17,16.36,21.91,30.43,1.07,20.29-12.72,37.38-33.83,38.81Z" fill="#5e398c"/><path d="M1361.84,656.94c-1.28-3.59-.16-5.92-1.74-8.72-2,3-1.03,5.09-1.24,8.74-13.41-.9-24.78-10.36-28.68-22.01-4.62-13.82-.43-27.69,10.39-36.9,10.24-8.72,24.69-9.9,36.11-3.32s17.39,18.67,16.07,32.44c-1.54,16.05-14.12,29-30.9,29.77Z" fill="#fbf7f3"/><path d="M293.52,817.71l-40.75-2.51-40.14.33-20.59-2.61-36.65-.14-.03-79.23,35.88-10.05c6.85-3.05,13.72-3.37,21.09-2.67l-.14-54.2,78.1-14.38,78.49,4.75.22,62.36,10.72.62,41.19,12.82c-.65,25.79-.8,50.68.05,77.45l-55.25.53-72.2,6.93Z" fill="#451e70"/><path d="M202.18,811.46v-35.91s-31.3-.32-31.3-.32c.2,12.29,1.24,23.5-.43,35.01l-12.46-.09.05-74.54,26.67-.19,27.61.44.06,76.97-10.19-1.37Z" fill="#f7f1f2"/><path d="M193.89,810.49l-3.24-1.2c-.93-3.6-2.16-27.51-.97-29.71.71-1.32,1.12-1.63,2.84-1.82,2.59.03,5.02-.42,7.37.86-.9,11.08-.75,21.13-.09,31.74l-5.91.12Z" fill="#ebe34e"/><path d="M212.26,733.01l-16.61-.29c-8.71-.15-16.84,1.28-25.77-.51l29.87-8.56c3.91-1.12,8.29-.21,12.26-.12l.25,9.47Z" fill="#e6d7ed"/><path d="M407,774.56l-28.32-.05c-.56,11.23-1.36,21.35-.04,32.78-3.39,1.09-6.49,1.07-9.9.17l.23-72.02,49.32-.28.06,72.31c-3.52.95-7.07.52-11.27.34l-.09-33.25Z" fill="#f2e8f0"/><rect x="383.52" y="786.78" width="31.1" height="11.39" transform="translate(-394.4457 1189.4628) rotate(-89.8496)" fill="#e6d4ef"/><path d="M390.85,807.7l-9.78.35c-1.06-10.19-.94-20.28,0-30.94h9.62s.17,30.59.17,30.59Z" fill="#dbc7e8"/><path d="M408.52,732.24l-39.17.59c-.84-3.81-.68-6.68-.39-10.36l12.35.77,27.22,9.01Z" fill="#e2d2ea"/><path d="M179.94,777.78c3.71,9.5,3.82,22.32.62,32.06l-7.2-.02.11-32.06,6.48.02Z" fill="#ebe355"/><path d="M180.56,809.85c-.6-10.96-.7-21.44-.62-32.06l6.21.02-.11,32.06-5.49-.02Z" fill="#e0c9e2"/><path d="M192.52,777.77c-1.28,1.14-1.8,2.76-1.79,4.73l.1,25.66c.55,1.16,2.92,1.9,3.07,2.33-1.4.03-5.38-.36-5.4-2.37l-.21-30.15c1.74-.54,2.8-.23,4.24-.21Z" fill="#c6acbf"/><polygon points="366.33 807.79 294.93 814.83 295.07 669.08 366.2 659.47 366.33 807.79" fill="#e2d3e8"/><path d="M294.32,666.32c-17.51,2.48-34.19.64-51.24.33l-13.66-.25,60.98-11.62,55.85,4.18-51.94,7.37Z" fill="#e4d4eb"/><polygon points="268.71 812.75 255.44 812.34 255.21 778.09 268.64 778.09 268.71 812.75" fill="#eae34c"/><polygon points="252.59 811.83 239.01 812.57 238.87 778.38 252.62 778.12 252.59 811.83" fill="#ede44c"/><path d="M271.46,813.21l-.12-37.83-34.79.34-.04,37.12-21.47-.08.04-143.38,77.03-.06c.56,6.87,1.29,12.23.16,18.61l-.08,126.6-20.72-1.31Z" fill="#f9f2f3"/><rect x="220.52" y="675.31" width="66.29" height="88.2" fill="#4b2664"/><rect x="223.07" y="677.77" width="61.29" height="83.29" fill="#ece64d"/><path d="M264.72,726.65c-1.28.88-3.22-1.22-2.01-2.15l7.47-5.73c-2.36-2.73-6.88-3.03-7.92-8.13,5.25,1.2,9.81,4.46,13.28,8.58l-10.82,7.42Z" fill="#faf9df"/><path d="M258.63,708.83l-8.5,21.55c-.53-.22-1.57-.28-2.02-.29l7.36-22.49c.31-.94,1.18-1.52,1.69-1.63.87-.19,2.3.77,1.48,2.86Z" fill="#f9f7d7"/><path d="M245,725.02c-2.65,3.33-4.53.56-6.89-.81-1.96-1.15-7.03-2.82-5.88-5.95,8.96-9.81,14.53-7.4,11.54-5.28l-8.15,5.78,9.38,6.26Z" fill="#f9f7d2"/><path d="M178.66,313.41c-1.42.05-2.68.53-3.8,1.44l-.62,18.85c-.64.32-1.57.51-1.97.49l-1.1-22.84c-4.25-.48-8.42-.75-12.07-2.47-9.88-4.67-4.43-13.82.62-23.95.51-1.03-.35-3.17-.26-4,4.84-10.5,9.54-26.03,14.71-23.51.7.34,1.9.92,2.5,2.29l8.44,19.12c2,4.54,2.23,9.24,4.58,13.82,3.27,6.37,1.53,14.38-5.49,16.61-2.66.85-4.59,2-5.55,4.17Z" fill="#4c2675"/><path d="M178.66,313.41c-.59,1.33-2.39,1.73-3.8,1.44.04-1.11-.25-2.37-1.2-3.48,2.89-1.11,3.94.46,5,2.04Z" fill="#9e7eba"/><path d="M172.87,297.94c-1.93,2.77-1.05,5.95-1.13,10.02-3.61.56-7.08.03-10.55-1.25-3.91-1.44-5.9-5.08-4.25-8.83l6.17-14.09c1.33-3.04-.13-5.94,1.97-9.36,2.94-4.78,3.72-10.87,8.32-14.63,3.29,6.25,7,12.25,8.56,18.77,2.82,11.86,7.74,18.8,5.92,23.58s-8.07,6.29-13.05,5.52l-.38-8.77c-.58-.73-1.51-.96-1.58-.95Z" fill="#f3e7f1"/><path d="M1309.43,275.94l14.19,105.27c.58,4.28.34,6.91-4.02,8.91-9.45,4.33-19.89,4.33-30.31,5.14-31.45,2.44-70.94.45-99.59-11.16-3.45-1.4-7.18-4.05-7.17-7.48.86-5.98,8.67-8.12,14-9.49,9.94-2.55,22.7-5.24,32.28-2.98l1.38.65c-2.35,9.29.55,12.22,10.24,11.55,1.16-.08,7.26-3.09,8.21-4.59.5-.8.87-1.61.95-2.58-.56-3.71.34-6.04,2.7-6.98,2.87.97,5.86,1.53,8.98,1.68l1.19,3.1c.49.79.94,1.87,1.34,3.25,2.13-.18,1.88,3.35-.07,3.71l1.12,6.54c6.52.61,13.19-.64,20.01-3.74-.42-12.13-3.62-24.44-7.67-36.04l.61-5.13c-1.61-.75-2.86-1.93-1.33-3.24l-.25-3.95c6.17-19.29,12.53-38.55,19.09-57.75l2.76-.59c2.07-3.32,12.15,2.24,11.37,5.89Z" fill="#f5f0bf"/><path d="M1198.09,255.17c.89-.32,2.36-.55,2.57,0,9.46,25,18.85,52.47,26.97,78.1,2.39,5.95,4.03,11.29,3.55,17.74,1.66,1.9.1,9.43-.84,12.62-.09.29-.73.42-1.54.51-1.82,1.52-3.81,1.56-6.29,1.64-11.4.36-22.31,2.14-32.82,6.14l-7.17,4.68c.02-3.44-1.24-9,.23-11.91,1.95-3.87,1.19-6.81,1.4-11.5l.75-16.62-.56-55.96-2.42-1.38c-.28-2-.31-16.81.13-17.57.52-.91,1.47-1.38,2.44-1.68l13.59-4.83Z" fill="#f2ec91"/></g></svg>