<svg id="robot" width="110" height="166" viewBox="0 0 110 166" fill="none" xmlns="http://www.w3.org/2000/svg">
<path d="M94.2015 138.487C91.7615 138.247 87.3415 139.297 86.8315 134.407C86.7115 133.307 86.9815 131.377 85.9515 130.817C85.4915 130.427 85.1415 130.047 85.1415 129.657C85.1715 122.997 86.6515 127.907 84.4615 133.567C84.3215 133.937 83.6715 134.097 82.8715 134.217C81.0615 139.867 76.3815 144.337 70.5915 145.977C69.5315 147.017 69.6515 151.347 70.8815 151.887C74.8215 153.617 83.1015 155.377 81.5515 160.277C79.6915 166.157 65.2315 166.907 58.7915 162.557C55.3515 160.237 58.7115 154.477 62.1715 153.717C65.2115 153.047 66.6615 151.057 65.8915 147.277L44.4315 147.197C44.2815 149.437 44.2715 150.957 44.6715 151.877C45.0015 152.657 57.7815 157.077 52.8015 161.797C48.1815 166.177 34.1115 167.097 29.8015 161.707C26.3015 157.337 34.7815 153.247 38.1315 152.727C40.6115 152.337 40.3215 146.137 38.5315 145.597C32.6415 143.847 29.5615 140.077 27.7415 134.807C25.2315 135.667 24.5715 124.797 24.7115 125.317C25.4715 128.147 26.5715 134.237 24.8815 135.967C22.8615 136.687 20.9515 138.557 18.4615 139.107C15.9115 136.567 16.1615 133.597 16.3815 130.797C17.2015 129.187 18.2715 127.577 19.8615 125.927C19.7515 118.367 23.0815 113.137 29.4615 107.397C19.1915 103.627 12.4115 97.2773 10.7215 86.9273C3.28148 85.5673 -0.418522 79.4773 0.101478 72.4573C-0.698522 65.0273 3.26148 58.8873 10.9215 57.6573C11.9215 47.7673 17.6715 40.4473 25.8115 35.7573C33.8015 31.5573 42.3415 30.3073 51.7815 29.9873C52.8115 25.1673 53.4715 20.6973 53.0715 15.9273C48.1615 14.2073 46.2915 10.0373 47.4615 5.80735C48.4315 2.31735 51.8115 -0.152654 55.7715 0.00734634C59.7315 0.167346 62.9915 3.23735 63.4915 7.49735C63.9915 11.7573 60.5715 13.9673 58.1015 16.5873C57.2815 20.9073 58.7815 25.6473 58.9815 30.0273C79.6415 30.3173 95.1315 37.1073 100.141 57.1573C104.361 59.5373 109.821 62.2573 109.141 68.5473C110.751 76.1773 107.311 83.7373 99.7715 86.6873C98.0015 96.5973 91.1715 103.397 81.8815 106.137C82.9815 112.247 90.7315 114.587 90.6815 126.057C94.9915 129.137 95.8015 133.837 94.2115 138.507L94.2015 138.487Z" fill="#070807"/>
<path d="M85.9516 130.807L85.6016 136.527C85.5316 137.717 83.3616 137.057 83.2816 136.377L82.8616 134.207C84.8416 128.027 84.1516 121.577 83.6516 115.167C87.9316 119.977 89.3416 126.697 85.9516 130.817V130.807Z" fill="#EBE8E6"/>
<path d="M27.7214 134.797L24.8614 135.947C24.5414 128.137 19.3514 122.397 27.0814 114.997C26.5814 122.187 25.6314 128.737 27.7214 134.797Z" fill="#EBE9E6"/>
<path d="M69.1615 143.217C55.9815 145.687 36.4115 145.747 31.7115 136.757C25.7215 125.317 35.5515 119.627 30.9615 113.827C29.8215 112.387 29.9215 107.877 32.2515 107.967C48.1715 108.597 63.6215 109.397 79.1815 107.567C81.3915 110.757 79.3015 114.437 79.0015 116.637C83.8015 127.697 80.4615 141.087 69.1615 143.207V143.217Z" fill="#FEFDFE"/>
<path d="M10.2215 61.0573L10.2515 83.4173C4.73154 81.9873 2.28154 77.0273 2.76154 71.3573C2.63154 66.6873 4.11154 62.2173 10.2315 61.0573H10.2215Z" fill="#E9E1ED"/>
<path d="M101.102 82.7474L101.042 60.6374C109.122 65.6174 109.012 76.7474 101.102 82.7474Z" fill="#E3E2E1"/>
<path d="M55.5115 13.5074C58.411 13.5074 60.7615 11.1568 60.7615 8.25735C60.7615 5.35786 58.411 3.00735 55.5115 3.00735C52.612 3.00735 50.2615 5.35786 50.2615 8.25735C50.2615 11.1568 52.612 13.5074 55.5115 13.5074Z" fill="#F5EA49"/>
<path d="M74.0814 105.027C59.2814 106.317 45.6514 106.477 31.8614 104.507C23.3014 103.287 15.5514 96.6973 14.0514 88.4273C12.1714 78.0773 12.5914 68.1373 13.7914 57.8673C14.9914 47.5973 22.2314 39.2873 32.3114 36.1073C56.2414 28.5473 92.6414 31.2273 96.9914 57.7673C98.6714 68.0273 99.0614 78.8973 96.0314 89.0973C93.3314 98.2073 83.8914 104.167 74.0814 105.017V105.027Z" fill="#FEFEFE"/>
<path d="M86.8915 82.2773C82.0915 98.5973 60.8015 96.7473 41.2415 95.2073C26.5315 94.0473 22.2615 77.0574 26.1015 61.6174C28.1215 53.4974 34.2215 48.0773 42.4615 46.2973C61.9815 44.6873 82.4115 42.7074 87.2615 61.4174C89.0515 68.3274 88.9315 75.3573 86.9015 82.2773H86.8915Z" fill="#010300"/>
<path d="M43.8715 75.0173C39.9815 74.6773 39.1315 70.7573 39.2315 68.3573C39.3515 65.6973 40.8915 62.6273 44.3815 62.6473C47.8715 62.6673 49.2815 65.8373 49.5215 68.3673C49.8015 71.3273 48.3415 75.4073 43.8715 75.0173Z" fill="#F6EB4A"/>
<path d="M69.3915 75.0073C65.8915 74.7373 65.0715 71.4673 64.9515 69.5173C64.8015 66.9273 65.6115 63.5473 68.8715 62.7973C72.6415 61.9273 75.0115 65.3573 75.2515 68.3473C75.4915 71.3373 73.8615 75.3573 69.3915 75.0173V75.0073Z" fill="#F4E844"/>
<path d="M63.6114 80.1774C62.3114 84.9074 59.1414 84.6774 56.1514 84.4974C53.7514 84.3574 50.7114 83.6374 50.1714 79.8474L63.6114 80.1774Z" fill="#EBE350"/>
</svg>
